<svg height="480pt" viewBox="0 0 480 480" width="480pt" xmlns="http://www.w3.org/2000/svg"><path d="m240 8c-128.128906 0-232 103.871094-232 232s103.871094 232 232 232 232-103.871094 232-232-103.871094-232-232-232zm0 440c-114.875 0-208-93.125-208-208s93.125-208 208-208 208 93.125 208 208-93.125 208-208 208zm0 0" fill="rgb(0, 104, 255,0.2)"/><path d="m256 240c0 8.835938-7.164062 16-16 16s-16-7.164062-16-16 7.164062-16 16-16 16 7.164062 16 16zm0 0" fill="rgb(0, 104, 255,0.2)"/><g fill="#0068ff"><path d="m240 480c-132.546875 0-240-107.453125-240-240s107.453125-240 240-240 240 107.453125 240 240c-.148438 132.484375-107.515625 239.851562-240 240zm0-464c-123.710938 0-224 100.289062-224 224s100.289062 224 224 224 224-100.289062 224-224c-.140625-123.652344-100.347656-223.859375-224-224zm0 0"/><path d="m240 456c-119.292969 0-216-96.707031-216-216s96.707031-216 216-216 216 96.707031 216 216c-.132812 119.238281-96.761719 215.867188-216 216zm0-416c-110.457031 0-200 89.542969-200 200s89.542969 200 200 200 200-89.542969 200-200c-.125-110.40625-89.59375-199.875-200-200zm0 0"/><path d="m240 96c-4.417969 0-8-3.582031-8-8v-32c0-4.417969 3.582031-8 8-8s8 3.582031 8 8v32c0 4.417969-3.582031 8-8 8zm0 0"/><path d="m152 95.574219c-2.859375.003906-5.503906-1.519531-6.9375-4l-4-6.925781c-2.171875-3.824219-.851562-8.683594 2.957031-10.882813 3.808594-2.199219 8.675781-.910156 10.902344 2.882813l4 6.925781c1.425781 2.476562 1.425781 5.523437 0 8-1.425781 2.472656-4.066406 4-6.921875 4zm0 0"/><path d="m87.566406 160c-1.402344.003906-2.785156-.367188-4-1.070312l-6.925781-4c-3.792969-2.226563-5.082031-7.09375-2.882813-10.902344 2.199219-3.808594 7.058594-5.128906 10.882813-2.957032l6.925781 4c3.136719 1.8125 4.664063 5.503907 3.730469 9-.9375 3.496094-4.109375 5.929688-7.730469 5.929688zm0 0"/><path d="m88 248h-32c-4.417969 0-8-3.582031-8-8s3.582031-8 8-8h32c4.417969 0 8 3.582031 8 8s-3.582031 8-8 8zm0 0"/><path d="m80.65625 340c-3.621094 0-6.789062-2.433594-7.726562-5.929688-.9375-3.496093.589843-7.1875 3.726562-9l6.929688-4c2.476562-1.449218 5.539062-1.464843 8.027343-.035156 2.492188 1.429688 4.023438 4.085938 4.015625 6.957032-.003906 2.871093-1.550781 5.515624-4.042968 6.9375l-6.929688 4c-1.214844.703124-2.59375 1.074218-4 1.070312zm0 0"/><path d="m148 407.351562c-2.855469-.003906-5.496094-1.527343-6.921875-4.003906-1.425781-2.472656-1.425781-5.523437 0-7.996094l4-6.925781c2.226563-3.796875 7.09375-5.082031 10.902344-2.882812 3.808593 2.199219 5.128906 7.058593 2.957031 10.882812l-4 6.925781c-1.433594 2.476563-4.078125 4.003907-6.9375 4zm0 0"/><path d="m240 432c-4.417969 0-8-3.582031-8-8v-32c0-4.417969 3.582031-8 8-8s8 3.582031 8 8v32c0 4.417969-3.582031 8-8 8zm0 0"/><path d="m332 407.351562c-2.859375.003907-5.503906-1.523437-6.9375-4l-4-6.925781c-1.449219-2.476562-1.464844-5.542969-.035156-8.03125 1.429687-2.492187 4.085937-4.023437 6.957031-4.015625 2.871094.003906 5.515625 1.550782 6.9375 4.046875l4 6.925781c1.425781 2.472657 1.425781 5.523438 0 7.996094-1.425781 2.476563-4.066406 4-6.921875 4.003906zm0 0"/><path d="m399.34375 340c-1.40625.003906-2.785156-.367188-4-1.070312l-6.929688-4c-2.492187-1.421876-4.039062-4.066407-4.042968-6.9375-.007813-2.871094 1.523437-5.527344 4.015625-6.957032 2.488281-1.429687 5.550781-1.414062 8.027343.035156l6.929688 4c3.136719 1.8125 4.664062 5.503907 3.726562 9-.9375 3.496094-4.105468 5.929688-7.726562 5.929688zm0 0"/><path d="m424 248h-32c-4.417969 0-8-3.582031-8-8s3.582031-8 8-8h32c4.417969 0 8 3.582031 8 8s-3.582031 8-8 8zm0 0"/><path d="m392.433594 160c-3.621094 0-6.792969-2.433594-7.730469-5.929688-.933594-3.496093.59375-7.1875 3.730469-9l6.925781-4c3.824219-2.171874 8.683594-.851562 10.882813 2.957032 2.199218 3.808594.910156 8.675781-2.882813 10.902344l-6.925781 4c-1.214844.703124-2.597656 1.074218-4 1.070312zm0 0"/><path d="m328 95.574219c-2.855469 0-5.496094-1.527344-6.921875-4-1.425781-2.476563-1.425781-5.523438 0-8l4-6.925781c2.226563-3.792969 7.09375-5.082032 10.902344-2.882813 3.808593 2.199219 5.128906 7.058594 2.957031 10.882813l-4 6.925781c-1.433594 2.480469-4.078125 4.003906-6.9375 4zm0 0"/><path d="m248 217.472656v-89.472656c0-4.417969-3.582031-8-8-8s-8 3.582031-8 8v89.472656c-6.777344 2.417969-12.109375 7.75-14.527344 14.527344h-57.472656c-4.417969 0-8 3.582031-8 8s3.582031 8 8 8h57.472656c3.699219 10.53125 14.1875 17.109375 25.28125 15.855469 11.09375-1.257813 19.84375-10.007813 21.101563-21.101563 1.253906-11.09375-5.324219-21.582031-15.855469-25.28125zm-8 30.527344c-4.417969 0-8-3.582031-8-8s3.582031-8 8-8 8 3.582031 8 8-3.582031 8-8 8zm0 0"/></g></svg>