<svg height="512" viewBox="0 0 64 64" width="512" xmlns="http://www.w3.org/2000/svg"><path d="m34.929 14.858a15 15 0 1 0 21.213 0 15 15 0 0 0 -21.213 0zm18.385 18.385a11 11 0 1 1 0-15.557 11.013 11.013 0 0 1 0 15.557z" fill="#afc1fb"/><path d="m29.272 33.243a2 2 0 0 0 0 2.828l.707.707 4.95 4.95a2 2 0 1 0 2.828-2.828l-2.828-2.828-2.829-2.829a2 2 0 0 0 -2.828 0z" fill="#afc1fb"/><path d="m18.494 52.506a3 3 0 0 0 4.243 0l11.485-11.485-4.243-4.243-11.485 11.485a3 3 0 0 0 0 4.243z" fill="#afc1fb"/><path d="m37.757 33.243a10.993 10.993 0 0 1 13.243-17.312v-10.931a2 2 0 0 0 -2-2h-30v14a2 2 0 0 1 -2 2h-14v40a2 2 0 0 0 2 2h44a2 2 0 0 0 2-2v-24a11.011 11.011 0 0 1 -13.243-1.757z" fill="#afc1fb"/><g fill="#0068ff"><path d="m17 46h-6a1 1 0 0 1 0-2h6a1 1 0 0 1 0 2z"/><path d="m15 28h-4a1 1 0 0 1 0-2h4a1 1 0 0 1 0 2z"/><path d="m15 34h-4a1 1 0 0 1 0-2h4a1 1 0 0 1 0 2z"/><path d="m15 40h-4a1 1 0 0 1 0-2h4a1 1 0 0 1 0 2z"/><path d="m23 40h-2a1 1 0 0 1 0-2h2a1 1 0 0 1 0 2z"/><path d="m25 34h-4a1 1 0 0 1 0-2h4a1 1 0 0 1 0 2z"/><path d="m56.85 14.151a15.886 15.886 0 0 0 -4.85-3.3v-5.851a3 3 0 0 0 -3-3h-30a1 1 0 0 0 -.707.293l-16 16a1 1 0 0 0 -.293.707v40a3 3 0 0 0 3 3h44a3 3 0 0 0 3-3v-18.917a15.962 15.962 0 0 0 4.85-25.932zm-38.85-8.737v11.586a1 1 0 0 1 -1 1h-11.586zm32 53.586a1 1 0 0 1 -1 1h-44a1 1 0 0 1 -1-1v-39h13a3 3 0 0 0 3-3v-13h29a1 1 0 0 1 1 1v5.107a15.987 15.987 0 0 0 -19.191 21.593 2.965 2.965 0 0 0 -2.244 5.081l-10.778 10.776a4 4 0 1 0 5.656 5.656l10.779-10.778a2.99 2.99 0 0 0 5.109-2.235 15.981 15.981 0 0 0 10.669.621zm-12.95-19.394a1 1 0 1 1 -1.414 1.415l-5.657-5.657a1 1 0 0 1 0-1.415 1.024 1.024 0 0 1 1.414 0zm-4.242 1.415-10.779 10.779a2.047 2.047 0 0 1 -2.828 0 2 2 0 0 1 0-2.828l10.778-10.78zm2.835-5.65-.014-.014a14 14 0 1 1 .014.014z"/><path d="m54.021 16.979a12.014 12.014 0 1 0 3.509 8.485 11.92 11.92 0 0 0 -3.509-8.485zm-1.415 15.557a10.012 10.012 0 1 1 2.924-7.072 9.931 9.931 0 0 1 -2.924 7.072z"/><path d="m51.192 19.808a7.945 7.945 0 0 0 -5.657-2.338 1 1 0 0 0 0 2 5.982 5.982 0 0 1 6 5.994 1 1 0 0 0 2 0 7.944 7.944 0 0 0 -2.343-5.656z"/><path d="m21 28h6a1 1 0 0 0 0-2h-6a1 1 0 0 0 0 2z"/></g></svg>