<?xml version="1.0" encoding="iso-8859-1"?>
<!-- Generator: Adobe Illustrator 19.0.0, SVG Export Plug-In . SVG Version: 6.00 Build 0)  -->
<svg version="1.1" id="Capa_1" xmlns="http://www.w3.org/2000/svg" xmlns:xlink="http://www.w3.org/1999/xlink" x="0px" y="0px"
	 viewBox="0 0 511.996 511.996" style="enable-background:new 0 0 511.996 511.996;" xml:space="preserve">
<path style="fill:#FFDA44;" d="M469.32,110.928H42.675c-18.849,0-34.132,15.282-34.132,34.132v255.987
	c0,18.849,15.282,34.132,34.132,34.132H304.55c-3.917-10.948-5.913-22.501-5.888-34.132c0-56.548,45.847-102.395,102.395-102.395
	s102.395,45.847,102.395,102.395V145.059C503.452,126.21,488.17,110.928,469.32,110.928z"/>
<path style="fill:#FFCD00;" d="M469.32,51.198H274.258c-11.417,0.009-22.083-5.691-28.415-15.189l-13.823-20.82
	C225.689,5.692,215.023-0.008,203.606,0H42.675C23.826,0,8.543,15.283,8.543,34.132v102.395c0-18.849,15.282-34.132,34.132-34.132
	H469.32c18.849,0,34.132,15.282,34.132,34.132V85.329C503.452,66.48,488.17,51.198,469.32,51.198z"/>
<g>
	<path style="fill:#E6E7E8;" d="M401.057,298.652c-56.548,0-102.395,45.847-102.395,102.395c-0.026,11.63,1.971,23.184,5.888,34.132
		c18.849,53.314,77.351,81.259,130.673,62.41c53.314-18.849,81.259-77.351,62.41-130.673
		C483.161,325.991,444.464,298.635,401.057,298.652z M433.482,445.725l-32.425-23.585l-32.425,23.585l12.398-38.159l-32.493-23.585
		h40.105l12.415-38.159l12.398,38.159h40.105l-32.425,23.585L433.482,445.725z"/>
	<polygon style="fill:#E6E7E8;" points="413.455,383.981 401.057,345.822 388.659,383.981 348.537,383.981 380.996,407.566 
		368.598,445.725 401.057,422.14 433.516,445.725 421.118,407.566 453.577,383.981 	"/>
</g>
<g>
	<path style="fill:#231F20;" d="M469.32,51.198H274.258c-8.567,0.017-16.571-4.249-21.332-11.374L239.12,18.986
		C231.21,7.108,217.881-0.026,203.606,0H42.675C19.124,0.026,0.036,19.114,0.011,42.665v358.382
		c0.026,23.551,19.114,42.639,42.665,42.665h256.09c23.534,56.53,88.435,83.273,144.966,59.739
		c41.35-17.211,68.28-57.614,68.255-102.403V93.862C511.959,70.311,492.871,51.223,469.32,51.198z M17.076,42.665
		c0-14.139,11.46-25.599,25.599-25.599h160.931c8.567-0.017,16.571,4.249,21.332,11.374l13.832,20.829
		c7.901,11.878,21.23,19.011,35.488,18.994H469.32c14.139,0,25.599,11.46,25.599,25.599v17.066
		c-0.324-0.239-0.708-0.418-1.041-0.657c-0.708-0.503-1.459-0.939-2.201-1.399c-1.425-0.896-2.91-1.698-4.437-2.415
		c-0.853-0.393-1.707-0.759-2.56-1.101c-1.655-0.623-3.345-1.152-5.06-1.57c-0.802-0.205-1.587-0.452-2.406-0.606
		c-2.603-0.512-5.239-0.768-7.893-0.785H42.675c-2.654,0.017-5.307,0.29-7.91,0.802c-0.853,0.154-1.604,0.401-2.406,0.606
		c-1.715,0.418-3.405,0.947-5.06,1.57c-0.853,0.341-1.707,0.708-2.56,1.101c-1.527,0.717-3.004,1.527-4.437,2.415
		c-0.742,0.461-1.493,0.896-2.201,1.399c-0.333,0.239-0.717,0.418-1.041,0.657L17.076,42.665z M401.057,494.909
		c-39.78-0.017-75.235-25.104-88.478-62.615c-3.592-10.026-5.41-20.598-5.384-31.247c0-51.837,42.025-93.862,93.862-93.862
		s93.862,42.025,93.862,93.862S452.895,494.909,401.057,494.909z M492.359,338.159c-1.775-2.56-3.626-5.12-5.615-7.5
		c-0.162-0.205-0.341-0.384-0.512-0.589c-1.869-2.244-3.848-4.386-5.888-6.476c-0.529-0.538-1.05-1.084-1.587-1.613
		c-2.202-2.159-4.463-4.266-6.826-6.212c-0.401-0.333-0.853-0.64-1.22-0.964c-2.125-1.707-4.326-3.353-6.57-4.915
		c-0.58-0.401-1.152-0.811-1.707-1.203c-2.56-1.707-5.197-3.311-7.91-4.813c-0.572-0.316-1.16-0.606-1.707-0.913
		c-2.423-1.28-4.898-2.475-7.415-3.575c-0.546-0.239-1.075-0.495-1.621-0.717c-2.884-1.212-5.837-2.287-8.84-3.251
		c-0.7-0.222-1.399-0.418-2.099-0.631c-2.799-0.853-5.632-1.579-8.533-2.193c-0.375-0.077-0.742-0.179-1.118-0.256
		c-3.166-0.64-6.391-1.118-9.651-1.476c-0.768-0.085-1.544-0.162-2.312-0.23c-3.413-0.299-6.758-0.512-10.171-0.512
		c-60.933-0.324-110.604,48.808-110.928,109.75c-0.026,4.275,0.205,8.541,0.674,12.782c0.111,1.109,0.273,2.21,0.418,3.311
		c0.401,2.927,0.913,5.819,1.536,8.678c0.145,0.666,0.196,1.348,0.358,2.005H42.675c-14.139,0-25.599-11.46-25.599-25.599V145.059
		c0-14.139,11.46-25.599,25.599-25.599H469.32c14.139,0,25.599,11.46,25.599,25.599v196.922c-0.418-0.657-0.853-1.288-1.314-1.937
		C493.144,339.396,492.769,338.756,492.359,338.159z"/>
	<path style="fill:#231F20;" d="M453.577,375.448h-33.918l-10.487-32.263c-1.468-4.48-6.297-6.912-10.769-5.444
		c-2.577,0.845-4.599,2.867-5.444,5.444l-10.504,32.263h-33.918c-4.71,0-8.533,3.823-8.533,8.533c0,2.731,1.306,5.299,3.516,6.903
		l27.442,19.941l-10.478,32.263c-1.459,4.48,0.998,9.292,5.478,10.751c2.603,0.845,5.444,0.393,7.654-1.212l27.442-19.941
		l27.442,19.941c3.814,2.773,9.147,1.928,11.92-1.886c1.604-2.21,2.056-5.06,1.212-7.654l-10.478-32.263l27.442-19.941
		c3.814-2.773,4.659-8.106,1.886-11.92C458.876,376.753,456.308,375.448,453.577,375.448z M413.003,410.203l4.266,13.183
		l-11.212-8.149c-2.995-2.176-7.04-2.176-10.035,0l-11.212,8.149l4.266-13.183c1.143-3.516-0.111-7.364-3.097-9.54l-11.187-8.149
		h13.866c3.695,0,6.971-2.381,8.115-5.896l4.266-13.183l4.266,13.183c1.143,3.516,4.42,5.896,8.115,5.896h13.866l-11.221,8.149
		C413.089,402.847,411.86,406.695,413.003,410.203z"/>
</g>
<g>
</g>
<g>
</g>
<g>
</g>
<g>
</g>
<g>
</g>
<g>
</g>
<g>
</g>
<g>
</g>
<g>
</g>
<g>
</g>
<g>
</g>
<g>
</g>
<g>
</g>
<g>
</g>
<g>
</g>
</svg>
