<svg height="480pt" viewBox="0 0 480 480" width="480pt" xmlns="http://www.w3.org/2000/svg"><path d="m8 8h464v64h-464zm0 0" fill="#9bc9ff"/><path d="m200 320h80v64h-80zm0 0" fill="#9bc9ff"/><path d="m200 160h80v64h-80zm0 0" fill="#9bc9ff"/><path d="m328 320h80v64h-80zm0 0" fill="#9bc9ff"/><path d="m328 160h80v64h-80zm0 0" fill="#9bc9ff"/><path d="m72 320h80v64h-80zm0 0" fill="#9bc9ff"/><path d="m72 160h80v64h-80zm0 0" fill="#9bc9ff"/><g fill="#1e81ce"><path d="m472 0h-464c-4.417969 0-8 3.582031-8 8v464c0 4.417969 3.582031 8 8 8h464c4.417969 0 8-3.582031 8-8v-464c0-4.417969-3.582031-8-8-8zm-456 16h448v48h-448zm448 448h-448v-384h448zm0 0"/><path d="m32 32h16v16h-16zm0 0"/><path d="m64 32h16v16h-16zm0 0"/><path d="m96 32h16v16h-16zm0 0"/><path d="m280 392h-80c-4.417969 0-8-3.582031-8-8v-64c0-4.417969 3.582031-8 8-8h80c4.417969 0 8 3.582031 8 8v64c0 4.417969-3.582031 8-8 8zm-72-16h64v-48h-64zm0 0"/><path d="m280 232h-80c-4.417969 0-8-3.582031-8-8v-64c0-4.417969 3.582031-8 8-8h80c4.417969 0 8 3.582031 8 8v64c0 4.417969-3.582031 8-8 8zm-72-16h64v-48h-64zm0 0"/><path d="m408 392h-80c-4.417969 0-8-3.582031-8-8v-64c0-4.417969 3.582031-8 8-8h80c4.417969 0 8 3.582031 8 8v64c0 4.417969-3.582031 8-8 8zm-72-16h64v-48h-64zm0 0"/><path d="m408 232h-80c-4.417969 0-8-3.582031-8-8v-64c0-4.417969 3.582031-8 8-8h80c4.417969 0 8 3.582031 8 8v64c0 4.417969-3.582031 8-8 8zm-72-16h64v-48h-64zm0 0"/><path d="m152 392h-80c-4.417969 0-8-3.582031-8-8v-64c0-4.417969 3.582031-8 8-8h80c4.417969 0 8 3.582031 8 8v64c0 4.417969-3.582031 8-8 8zm-72-16h64v-48h-64zm0 0"/><path d="m152 232h-80c-4.417969 0-8-3.582031-8-8v-64c0-4.417969 3.582031-8 8-8h80c4.417969 0 8 3.582031 8 8v64c0 4.417969-3.582031 8-8 8zm-72-16h64v-48h-64zm0 0"/></g></svg>