<svg height="480pt" viewBox="0 0 480.00332 480" width="480pt" xmlns="http://www.w3.org/2000/svg"><g fill="rgb(0, 104, 255,0.2)"><path d="m165.496094 329.101562c-9.148438-28.808593-13.703125-58.878906-13.496094-89.105468h-80c-.089844 40.527344 14.554688 79.707031 41.203125 110.242187 16.320313-9.484375 33.910156-16.59375 52.238281-21.121093zm0 0"/><path d="m165.496094 150.894531h-.054688c-18.328125-4.527343-35.917968-11.636719-52.238281-21.121093-26.648437 30.53125-41.289063 69.703124-41.203125 110.222656h80c-.207031-30.222656 4.347656-60.292969 13.496094-89.101563zm0 0"/><path d="m314.503906 329.101562h.058594c18.328125 4.527344 35.914062 11.636719 52.238281 21.121094 26.644531-30.53125 41.289063-69.703125 41.199219-110.226562h-80c.210938 30.226562-4.34375 60.296875-13.496094 89.105468zm0 0"/><path d="m314.5625 150.878906h-.058594c9.152344 28.8125 13.707032 58.886719 13.496094 89.117188h80c.09375-40.527344-14.550781-79.703125-41.199219-110.238282-16.324219 9.484376-33.910156 16.59375-52.238281 21.121094zm0 0"/><path d="m240 239.996094h88c.210938-30.222656-4.34375-60.292969-13.496094-89.101563-24.351562 6.15625-49.382812 9.214844-74.503906 9.101563zm0 0"/><path d="m240 159.996094c-25.117188.113281-50.148438-2.945313-74.503906-9.101563-9.148438 28.808594-13.703125 58.878907-13.496094 89.101563h88zm0 0"/><path d="m240 319.996094c25.121094-.113282 50.152344 2.945312 74.503906 9.105468 9.152344-28.808593 13.707032-58.878906 13.496094-89.105468h-88zm0 0"/><path d="m152 239.996094c-.207031 30.226562 4.347656 60.296875 13.496094 89.105468 24.355468-6.160156 49.386718-9.21875 74.503906-9.105468v-80zm0 0"/><path d="m314.503906 150.894531h.058594c18.328125-4.527343 35.914062-11.636719 52.238281-21.121093-31.875-36.753907-78.148437-57.839844-126.800781-57.777344 31.433594 0 58.945312 31.5625 74.503906 78.898437zm0 0"/><path d="m165.496094 150.894531c15.5625-47.335937 43.074218-78.898437 74.503906-78.898437-48.644531-.066406-94.921875 21.011718-126.796875 57.761718 16.320313 9.484376 33.910156 16.59375 52.238281 21.121094zm0 0"/><path d="m314.503906 150.894531c-15.558594-47.335937-43.070312-78.898437-74.503906-78.898437v88c25.121094.113281 50.152344-2.945313 74.503906-9.101563zm0 0"/><path d="m165.496094 150.894531c24.355468 6.15625 49.386718 9.214844 74.503906 9.101563v-88c-31.429688 0-58.941406 31.5625-74.503906 78.898437zm0 0"/><path d="m314.503906 329.101562c-15.558594 47.335938-43.070312 78.894532-74.503906 78.894532 48.648438.070312 94.925781-21.011719 126.800781-57.757813-16.324219-9.484375-33.910156-16.59375-52.238281-21.121093zm0 0"/><path d="m165.496094 329.101562h-.054688c-18.328125 4.527344-35.917968 11.636719-52.238281 21.121094 31.871094 36.753906 78.148437 57.839844 126.796875 57.773438-31.429688 0-58.941406-31.558594-74.503906-78.894532zm0 0"/><path d="m314.503906 329.101562c-24.351562-6.160156-49.382812-9.21875-74.503906-9.105468v88c31.433594 0 58.945312-31.558594 74.503906-78.894532zm0 0"/><path d="m165.496094 329.101562c15.5625 47.335938 43.074218 78.894532 74.503906 78.894532v-88c-25.117188-.113282-50.148438 2.945312-74.503906 9.105468zm0 0"/></g><path d="m240 63.996094c-15.769531 0-31.46875 2.113281-46.679688 6.289062-4.09375 1.128906-8.132812 2.457032-12.132812 3.871094-25.570312 9.035156-48.703125 23.863281-67.585938 43.328125-2.207031 2.273437-4.339843 4.613281-6.398437 7.015625-50.949219 58.5625-57.515625 143.585938-16.167969 209.277344 41.351563 65.691406 120.851563 96.535156 195.6875 75.925781 4.09375-1.128906 8.136719-2.457031 12.136719-3.875 25.554687-9.035156 48.671875-23.859375 67.542969-43.316406 2.207031-2.273438 4.339844-4.613281 6.398437-7.019531 45.253907-52.035157 55.949219-125.707032 27.359375-188.460938-28.589844-62.757812-91.195312-103.03125-160.160156-103.035156zm124.730469 276c-12.703125-6.789063-26.085938-12.226563-39.929688-16.222656 6.886719-24.683594 10.578125-50.152344 10.984375-75.777344h63.855469c-1.644531 33.582031-13.863281 65.785156-34.910156 92zm-11.386719 12.898437c-3.550781 3.558594-7.199219 6.976563-11.0625 10.167969-3.847656 3.199219-7.863281 6.175781-12 8.992188-.351562.230468-.679688.480468-1.023438.71875-3.9375 2.640624-8 5.082031-12.144531 7.359374-.566406.3125-1.121093.632813-1.6875.9375-4.0625 2.167969-8.222656 4.144532-12.457031 5.960938-.6875.285156-1.367188.582031-2.054688.863281-4.074218 1.679688-8.222656 3.199219-12.425781 4.503907 13.949219-15.519532 24.609375-33.703126 31.335938-53.457032 11.773437 3.355469 23.203125 7.8125 34.136719 13.320313-.183594.214843-.40625.425781-.617188.640625zm-176.351562 34.136719c-4.222657-1.808594-8.371094-3.792969-12.4375-5.953125-.570313-.304687-1.136719-.632813-1.703126-.945313-4.136718-2.277343-8.203124-4.710937-12.128906-7.351562l-1.050781-.734375c-4.09375-2.808594-8.09375-5.777344-11.933594-8.96875-3.839843-3.199219-7.511719-6.609375-11.054687-10.167969l-.65625-.632812c10.933594-5.503906 22.363281-9.96875 34.132812-13.328125 6.726563 19.753906 17.386719 37.941406 31.335938 53.464843-4.199219-1.335937-8.351563-2.824218-12.421875-4.496093zm-61.71875-247.035156c12.703124 6.792968 26.085937 12.230468 39.929687 16.226562-6.886719 24.683594-10.578125 50.152344-10.984375 75.773438h-63.855469c1.644531-33.578125 13.863281-65.78125 34.910157-92zm11.382812-12.894532c3.554688-3.558593 7.203125-6.976562 11.066406-10.167968 3.847656-3.199219 7.863282-6.175782 12-8.992188.351563-.230468.679688-.480468 1.023438-.71875 3.9375-2.640625 8-5.082031 12.144531-7.359375.566406-.3125 1.117187-.632812 1.6875-.9375 4.0625-2.167969 8.222656-4.144531 12.457031-5.960937.6875-.285156 1.367188-.582032 2.054688-.863282 4.070312-1.679687 8.222656-3.199218 12.425781-4.503906-13.949219 15.519532-24.609375 33.703125-31.339844 53.457032-11.769531-3.355469-23.199219-7.816407-34.132812-13.320313.183593-.214844.40625-.425781.613281-.640625zm176.351562-34.128906c4.226563 1.808594 8.371094 3.792969 12.441407 5.953125.570312.304688 1.136719.632813 1.703125.945313 4.136718 2.277344 8.203125 4.710937 12.128906 7.351562l1.046875.734375c4.097656 2.808594 8.097656 5.777344 11.9375 8.96875 3.839844 3.199219 7.511719 6.609375 11.054687 10.167969l.65625.632812c-10.933593 5.503907-22.363281 9.96875-34.136718 13.328126-6.722656-19.757813-17.382813-37.945313-31.335938-53.464844 4.203125 1.335937 8.355469 2.824218 12.425782 4.496094zm-71.007812 58.785156c-18.769531-.410156-37.457031-2.640624-55.796875-6.664062 13.199219-35.054688 33.246094-59.535156 55.796875-64.257812zm-60.910156 8.574219c20.003906 4.515625 40.410156 7.003907 60.910156 7.425781v64.238282h-71.789062c.519531-24.253906 4.175781-48.34375 10.878906-71.664063zm60.910156 87.664063v64.242187c-20.5.421875-40.90625 2.910157-60.910156 7.421875-6.703125-23.316406-10.359375-47.40625-10.878906-71.664062zm0 80.242187v70.960938c-22.550781-4.722657-42.597656-29.203125-55.796875-64.257813 18.335937-4.035156 37.027344-6.28125 55.796875-6.703125zm16 0c18.773438.410157 37.460938 2.640625 55.800781 6.664063-13.199219 35.054687-33.246093 59.535156-55.800781 64.296875zm60.914062-8.578125c-20.003906-4.511718-40.410156-7-60.914062-7.421875v-64.242187h71.792969c-.519531 24.257812-4.175781 48.347656-10.878907 71.664062zm-60.914062-87.664062v-64.238282c20.503906-.421874 40.910156-2.910156 60.914062-7.425781 6.703126 23.320313 10.359376 47.410157 10.878907 71.664063zm0-80.238282v-70.921874c22.554688 4.722656 42.601562 29.203124 55.800781 64.257812-18.339843 4.023438-37.027343 6.253906-55.800781 6.664062zm-103.78125 96.238282c.40625 25.625 4.097656 51.09375 10.984375 75.777344-13.84375 3.996093-27.226563 9.433593-39.929687 16.222656-21.046876-26.214844-33.269532-58.417969-34.910157-92zm191.566406-16c-.40625-25.621094-4.097656-51.089844-10.984375-75.773438 13.84375-3.996094 27.226563-9.433594 39.929688-16.226562 21.046875 26.21875 33.265625 58.421875 34.910156 92zm0 0" fill="#0068ff"/><path d="m428.386719 91.277344c-2.757813-3.402344-7.738281-3.953125-11.175781-1.238282-3.433594 2.714844-4.046876 7.6875-1.378907 11.160157 31.367188 39.445312 48.355469 88.402343 48.167969 138.796875.003906 85.796875-48.996094 164.058594-126.179688 201.523437-77.183593 37.46875-168.988281 27.554688-236.394531-25.523437h26.574219c4.421875 0 8-3.578125 8-8 0-4.417969-3.578125-8-8-8h-48.09375c-.695312.050781-1.375.1875-2.03125.417968-.347656.050782-.691406.125-1.023438.222657-.203124.082031-.355468.265625-.546874.359375-.742188.367187-1.425782.847656-2.023438 1.425781l-.070312.046875c-.183594.257812-.347657.523438-.496094.800781-.453125.535157-.832032 1.128907-1.121094 1.769531-.183594.582032-.304688 1.183594-.359375 1.789063-.109375.382813-.183594.773437-.234375 1.167969v48c0 4.421875 3.582031 8 8 8 4.421875 0 8-3.578125 8-8v-30.34375c71.746094 58.78125 170.941406 70.949218 254.765625 31.25 83.824219-39.699219 137.257813-124.15625 137.234375-216.90625.203125-53.996094-18.003906-106.453125-51.613281-148.71875zm0 0" fill="#0068ff"/><path d="m16 239.996094c0-85.792969 49-164.054688 126.183594-201.519532 77.183594-37.46875 168.988281-27.554687 236.394531 25.519532h-26.578125c-4.417969 0-8 3.582031-8 8 0 4.421875 3.582031 8 8 8h48.082031c.820313-.03125 1.628907-.199219 2.398438-.484375.226562-.039063.445312-.085938.664062-.144531.261719-.160157.515625-.328126.761719-.511719.664062-.339844 1.273438-.769531 1.816406-1.28125l.070313-.046875c.1875-.257813.355469-.523438.503906-.800782.910156-.96875 1.433594-2.234374 1.472656-3.5625.105469-.382812.183594-.773437.230469-1.167968v-48c0-4.417969-3.578125-8-8-8-4.417969 0-8 3.582031-8 8v30.347656c-71.742188-58.785156-170.9375-70.953125-254.761719-31.25-83.824219 39.699219-137.2617185 124.15625-137.238281 216.902344-.203125 54.210937 18.144531 106.855468 52 149.195312 1.773438 2.253906 4.617188 3.386719 7.457031 2.96875 2.835938-.417968 5.234375-2.320312 6.28125-4.988281 1.046875-2.671875.585938-5.699219-1.207031-7.933594-31.597656-39.511719-48.722656-88.648437-48.53125-139.242187zm0 0" fill="#0068ff"/></svg>