<svg height="512" viewBox="0 0 64 64" width="512" xmlns="http://www.w3.org/2000/svg"><g id="laptop_&#xB7;_ecommerce_&#xB7;_shirt_&#xB7;_market&#xB7;_shopping" data-name="laptop &#xB7; ecommerce  &#xB7; shirt &#xB7; market&#xB7; shopping"><g fill="rgb(0, 104, 255,0.2)"><path d="m6 18v35h52v-35zm48 31h-44v-23.76a4.494 4.494 0 0 0 2-3.74v-.5a5 5 0 0 0 10 0 5 5 0 0 0 10 0 5 5 0 0 0 10 0 5 5 0 0 0 10 0v.5a4.494 4.494 0 0 0 2 3.74z"/><path d="m27 31a3 3 0 0 1 -6 0h-2.025l-3.975 1v4l4-1v10h10v-10l4 1v-4l-3.983-1z"/><path d="m37 53v2a2 2 0 0 1 -2 2h-6a2 2 0 0 1 -2-2v-2h-24v4a4 4 0 0 0 4 4h50a4 4 0 0 0 4-4v-4z"/><path d="m12 21.5v-3.5h-9v3.5a4.5 4.5 0 0 0 7 3.74 4.494 4.494 0 0 0 2-3.74z"/><path d="m27 26a5 5 0 0 0 5-5v-3h-10v3a5 5 0 0 0 5 5z"/><path d="m17 26a5 5 0 0 0 5-5v-3h-10v3a5 5 0 0 0 5 5z"/><path d="m52 21v.5a4.494 4.494 0 0 0 2 3.74 4.5 4.5 0 0 0 7-3.74v-3.5h-9z"/><path d="m37 26a5 5 0 0 0 5-5v-3h-10v3a5 5 0 0 0 5 5z"/><path d="m47 26a5 5 0 0 0 5-5v-3h-10v3a5 5 0 0 0 5 5z"/><path d="m27 31a3 3 0 0 1 -6 0h-2.025l-3.975 1v4l4-1v10h10v-10l4 1v-4l-3.983-1z"/><path d="m3 18h9 10 10 10 10 9v-6h-58z"/><path d="m11 3-8 9h58l-8-9z"/></g><path d="m33.243 31.03-3.982-1a.992.992 0 0 0 -.243-.03h-2.018a1 1 0 0 0 -1 1 2 2 0 0 1 -4 0 1 1 0 0 0 -1-1h-2.024a1.021 1.021 0 0 0 -.245.03l-3.975 1a1 1 0 0 0 -.756.97v4a1 1 0 0 0 1.242.97l2.758-.689v8.719a1 1 0 0 0 1 1h10a1 1 0 0 0 1-1v-8.719l2.758.689a1 1 0 0 0 1.242-.97v-4a1 1 0 0 0 -.757-.97zm-1.243 3.689-2.758-.689a1 1 0 0 0 -1.242.97v9h-8v-9a1 1 0 0 0 -1.242-.97l-2.758.689v-1.939l3.1-.78h1.027a4 4 0 0 0 7.746 0h1.021l3.106.78z" fill="#0068ff"/><path d="m48 36h-10a1 1 0 0 0 0 2h10a1 1 0 0 0 0-2z" fill="#0068ff"/><path d="m50 32h-12a1 1 0 0 0 0 2h12a1 1 0 0 0 0-2z" fill="#0068ff"/><path d="m44 40h-6a1 1 0 0 0 0 2h6a1 1 0 0 0 0-2z" fill="#0068ff"/><path d="m61.75 11.34-8-9a.981.981 0 0 0 -.75-.34h-42a.981.981 0 0 0 -.75.34l-8 9a.985.985 0 0 0 -.25.66v9.5a5.494 5.494 0 0 0 3 4.89v25.61h-2a1 1 0 0 0 -1 1v4a5 5 0 0 0 5 5h50a5 5 0 0 0 5-5v-4a1 1 0 0 0 -1-1h-2v-25.61a5.494 5.494 0 0 0 3-4.89v-9.5a.985.985 0 0 0 -.25-.66zm-50.3-7.34h41.1l6.22 7h-53.54zm-7.45 17.5v-2.5h7v2.5a3.5 3.5 0 0 1 -7 0zm13 5.5a6 6 0 0 0 5-2.69 5.992 5.992 0 0 0 10 0 5.992 5.992 0 0 0 10 0 5.989 5.989 0 0 0 9.88.17 5.6 5.6 0 0 0 1.12 1.26v22.26h-42v-22.26a5.6 5.6 0 0 0 1.12-1.26 6 6 0 0 0 4.88 2.52zm-4-6v-2h8v2a4 4 0 0 1 -8 0zm10 0v-2h8v2a4 4 0 0 1 -8 0zm10 0v-2h8v2a4 4 0 0 1 -8 0zm10 0v-2h8v2a4 4 0 0 1 -8 0zm-36 31v-25.03a4.07 4.07 0 0 0 .5.03 5.719 5.719 0 0 0 1.5-.21v22.21a1 1 0 0 0 1 1h44a1 1 0 0 0 1-1v-22.21a5.719 5.719 0 0 0 1.5.21 4.07 4.07 0 0 0 .5-.03v25.03zm29 2v1a1 1 0 0 1 -1 1h-6a1 1 0 0 1 -1-1v-1zm24 0v3a3.009 3.009 0 0 1 -3 3h-50a3.009 3.009 0 0 1 -3-3v-3h22v1a3.009 3.009 0 0 0 3 3h6a3.009 3.009 0 0 0 3-3v-1zm0-32.5a3.5 3.5 0 0 1 -7 0v-2.5h7zm0-4.5h-56v-4h56z" fill="#0068ff"/></g></svg>