<svg height="512" viewBox="0 0 64 64" width="512" xmlns="http://www.w3.org/2000/svg"><g id="Report-Papers-Business-Graph-Financial"><path d="m22 44h10v10h-10z" fill="rgba(234, 156, 35, 0.3)"/><path d="m40 24h4v14h-4z" fill="rgba(234, 156, 35, 0.3)"/><path d="m32 28h4v10h-4z" fill="rgba(234, 156, 35, 0.3)"/><path d="m24 32h4v6h-4z" fill="rgba(234, 156, 35, 0.3)"/><path d="m54 15h-6a2.006 2.006 0 0 1 -2-2v-6z" fill="rgba(234, 156, 35, 0.3)"/><path d="m54 57v-42l-8-8h-28a4 4 0 0 1 4-4h32a4 4 0 0 1 4 4v46a4 4 0 0 1 -4 4z" fill="rgba(234, 156, 35, 0.3)"/><path d="m18 13.52a8.8 8.8 0 0 0 -3-.52 8.262 8.262 0 0 0 -1 .06 9 9 0 0 0 0 17.88 8.262 8.262 0 0 0 1 .06 8.8 8.8 0 0 0 3-.52 8.993 8.993 0 0 0 0-16.96z" fill="rgba(234, 156, 35, 0.3)"/><g fill="#ea9c23"><path d="m46.707 6.293a1 1 0 0 0 -.707-.293h-28a5 5 0 0 0 -4.842 3.751l1.936.5a3 3 0 0 1 2.906-2.251h27v5a3 3 0 0 0 3 3h5v41a3 3 0 0 1 -3 3h-32a3 3 0 0 1 -3-3v-23h-2v23a5.006 5.006 0 0 0 5 5h32a5.006 5.006 0 0 0 5-5v-42a1 1 0 0 0 -.293-.707zm.293 6.707v-3.586l4.586 4.586h-3.586a1 1 0 0 1 -1-1z"/><path d="m54 2h-32a5 5 0 0 0 -3.308 1.25l1.325 1.5a2.989 2.989 0 0 1 1.983-.75h32a3 3 0 0 1 3 3v46a2.989 2.989 0 0 1 -.75 1.983l1.5 1.325a5 5 0 0 0 1.25-3.308v-46a5.006 5.006 0 0 0 -5-5z"/><path d="m16 28v-1a3 3 0 0 0 0-6h-2a1 1 0 0 1 0-2h2a1 1 0 0 1 1 1h2a3 3 0 0 0 -3-3v-1h-2v1a3 3 0 0 0 0 6h2a1 1 0 0 1 0 2h-2a1 1 0 0 1 -1-1h-2a3 3 0 0 0 3 3v1z"/><path d="m25 22a10 10 0 1 0 -10 10 10.011 10.011 0 0 0 10-10zm-18 0a8 8 0 1 1 8 8 8.009 8.009 0 0 1 -8-8z"/><path d="m28 16h12v2h-12z"/><path d="m28 12h2v2h-2z"/><path d="m32 12h8v2h-8z"/><path d="m24 31a1 1 0 0 0 -1 1v5h-2v2h26v-2h-2v-13a1 1 0 0 0 -1-1h-4a1 1 0 0 0 -1 1v13h-2v-9a1 1 0 0 0 -1-1h-4a1 1 0 0 0 -1 1v9h-2v-5a1 1 0 0 0 -1-1zm17-6h2v12h-2zm-8 4h2v8h-2zm-8 8v-4h2v4z"/><path d="m22 43a1 1 0 0 0 -1 1v10a1 1 0 0 0 1 1h10a1 1 0 0 0 1-1v-10a1 1 0 0 0 -1-1zm9 10h-8v-8h8z"/><path d="m37 43h12v2h-12z"/><path d="m37 51h12v2h-12z"/><path d="m37 47h12v2h-12z"/></g></g></svg>