<svg height="480.608pt" viewBox="0 0 480.608 480.608" width="480.608pt" xmlns="http://www.w3.org/2000/svg"><path d="m404.65625 404.65625c43.578125-43.460938 68.03125-102.503906 67.953125-164.046875h-232zm0 0" fill="#afc1fb"/><path d="m240.609375 8.609375c-105.007813-.003906-196.921875 70.523437-224.097656 171.953125-27.175781 101.425781 17.15625 208.460938 108.09375 260.964844 90.9375 52.5 205.800781 37.378906 280.050781-36.871094l-164.046875-164.046875zm0 0" fill="#afc1fb"/><path d="m410.65625 409.792969c93.519531-94 93.230469-245.984375-.648438-339.625-93.878906-93.640625-245.863281-93.542969-339.625.214843-93.757812 93.761719-93.855468 245.746094-.214843 339.625 93.640625 93.878907 245.625 94.167969 339.625.648438.160156-.136719.367187-.191406.519531-.34375s.207031-.359375.34375-.519531zm-150.734375-161.183594h204.484375c-1.902344 53.835937-23.210938 105.171875-60 144.527344zm204.484375-16h-215.796875v-215.800781c117.34375 4.328125 211.472656 98.457031 215.796875 215.800781zm-447.796875 8c.152344-120.527344 95.554687-219.371094 216-223.800781v223.800781c.003906 1.046875.214844 2.085937.613281 3.054687.402344.976563.992188 1.863282 1.738282 2.609376l158.175781 158.175781c-65.191407 60.8125-160.253907 77.140625-242 41.570312-81.746094-35.570312-134.59375-116.261719-134.527344-205.410156zm0 0" fill="#0068ff"/></svg>