<svg id="Smartphone-Online-Credit_Card-Bill-Report" height="512" viewBox="0 0 64 64" width="512" xmlns="http://www.w3.org/2000/svg" data-name="Smartphone-Online-Credit Card-Bill-Report"><g fill="rgba(253, 44, 145, 0.3)"><path d="m53 17v3a1 1 0 0 1 -1 1h-9v-4z"/><path d="m55 27h-16a2.006 2.006 0 0 0 -2 2v24a2.006 2.006 0 0 0 2 2h16a2.006 2.006 0 0 0 2-2v-24a2.006 2.006 0 0 0 -2-2zm-10 22a2 2 0 0 1 -4 0 1.976 1.976 0 0 1 .69-1.5 1.976 1.976 0 0 1 -.69-1.5 2 2 0 0 1 4 0 1.976 1.976 0 0 1 -.69 1.5 1.976 1.976 0 0 1 .69 1.5zm8-12h-4v-6h4z"/><path d="m43 17v4h-1a1 1 0 0 1 -1-1v-3z"/><path d="m17 40 5.66 5.66a8 8 0 1 1 -5.66-13.66z"/></g><g fill="#fd2c91"><path d="m57 16h-13v-13a1 1 0 0 0 -1-1c-1.618 0-2.355 1.476-2.9 2.553-.418.847-.746 1.447-1.1 1.447s-.674-.6-1.095-1.442c-.538-1.079-1.275-2.558-2.895-2.558s-2.356 1.476-2.895 2.553c-.424.847-.751 1.447-1.105 1.447s-.682-.6-1.106-1.447c-.539-1.077-1.276-2.553-2.894-2.553s-2.356 1.476-2.9 2.553c-.419.847-.746 1.447-1.1 1.447s-.682-.6-1.106-1.447c-.539-1.077-1.276-2.553-2.894-2.553s-2.356 1.476-2.9 2.553c-.419.847-.746 1.447-1.1 1.447s-.682-.6-1.106-1.447c-.539-1.077-1.276-2.553-2.894-2.553s-2.356 1.476-2.895 2.553c-.424.847-.751 1.447-1.105 1.447s-.691-.6-1.116-1.452c-.54-1.075-1.278-2.548-2.894-2.548a1 1 0 0 0 -1 1v53a2 2 0 0 0 2 2h28.1a5.009 5.009 0 0 0 4.9 4h20a5.006 5.006 0 0 0 5-5v-36a5.006 5.006 0 0 0 -5-5zm-15 2h10v2h-10zm-10 3v35h-28v-50.765c.034.069.069.138.105.209.541 1.078 1.282 2.556 2.905 2.556s2.355-1.476 2.89-2.553c.428-.847.755-1.447 1.11-1.447s.681.6 1.105 1.447c.539 1.077 1.277 2.553 2.895 2.553s2.355-1.476 2.89-2.553c.428-.847.755-1.447 1.11-1.447s.681.6 1.1 1.447c.544 1.077 1.282 2.553 2.9 2.553s2.355-1.476 2.89-2.553c.428-.847.755-1.447 1.11-1.447s.681.6 1.1 1.447c.544 1.077 1.282 2.553 2.9 2.553s2.355-1.476 2.89-2.553c.428-.847.755-1.447 1.11-1.447s.682.6 1.105 1.45c.537 1.076 1.273 2.55 2.885 2.55s2.355-1.476 2.9-2.553c.036-.072.071-.141.1-.21v10.763h-5a5.006 5.006 0 0 0 -5 5zm28 36a3 3 0 0 1 -3 3h-20a3 3 0 0 1 -3-3v-36a3 3 0 0 1 3-3h3v2a2 2 0 0 0 2 2h10a2 2 0 0 0 2-2v-2h3a3 3 0 0 1 3 3z"/><path d="m55 26h-16a3 3 0 0 0 -3 3v24a3 3 0 0 0 3 3h16a3 3 0 0 0 3-3v-24a3 3 0 0 0 -3-3zm1 27a1 1 0 0 1 -1 1h-16a1 1 0 0 1 -1-1v-24a1 1 0 0 1 1-1h16a1 1 0 0 1 1 1z"/><path d="m43 43a3 3 0 0 0 -3 3 2.965 2.965 0 0 0 .421 1.507 2.959 2.959 0 0 0 -.421 1.493 3 3 0 0 0 6 0 2.959 2.959 0 0 0 -.421-1.493 2.965 2.965 0 0 0 .421-1.507 3 3 0 0 0 -3-3zm0 2a1 1 0 1 1 -1 1 1 1 0 0 1 1-1zm0 5a1 1 0 0 1 -1-1 .956.956 0 0 1 .038-.173 2.761 2.761 0 0 0 1.924 0 .956.956 0 0 1 .038.173 1 1 0 0 1 -1 1z"/><path d="m53 30h-4a1 1 0 0 0 -1 1v6a1 1 0 0 0 1 1h4a1 1 0 0 0 1-1v-6a1 1 0 0 0 -1-1zm-1 6h-2v-4h2z"/><path d="m49 50h4v2h-4z"/><path d="m49 46h4v2h-4z"/><path d="m49 42h4v2h-4z"/><path d="m40 30h2v2h-2z"/><path d="m40 34h2v2h-2z"/><path d="m40 38h2v2h-2z"/><path d="m44 30h2v10h-2z"/><path d="m18 15h10v2h-10z"/><path d="m18 19h10v2h-10z"/><path d="m13 19h-2a1 1 0 0 1 -1-1h-2a3 3 0 0 0 3 3v1h2v-1a3 3 0 0 0 0-6h-2a1 1 0 0 1 0-2h2a1 1 0 0 1 1 1h2a3 3 0 0 0 -3-3v-1h-2v1a3 3 0 0 0 0 6h2a1 1 0 0 1 0 2z"/><path d="m17 31a9 9 0 1 0 9 9 9.01 9.01 0 0 0 -9-9zm6.92 8h-5.92v-5.92a7 7 0 0 1 5.92 5.92zm-4.506 2h4.506a6.947 6.947 0 0 1 -1.32 3.184zm-9.414-1a7.006 7.006 0 0 1 6-6.92v6.92h.009a.991.991 0 0 0 .284.707l4.891 4.893a6.986 6.986 0 0 1 -11.184-5.6z"/></g></svg>