<svg xmlns="http://www.w3.org/2000/svg" viewBox="0 0 500 500"><g id="freepik--Floor--inject-2"><path d="M481.72,460.49c0,.14-104.18.26-232.67.26s-232.7-.12-232.7-.26,104.16-.26,232.7-.26S481.72,460.34,481.72,460.49Z" style="fill:#263238"></path></g><g id="freepik--Device--inject-2"><path d="M322.09,460.49H189.42c-16-.07-29.07-13.7-29-29.68l1.41-333.09A28.93,28.93,0,0,1,190.9,68.9l132.87.62a28.93,28.93,0,0,1,28.8,29.06l-1.41,333.09A28.93,28.93,0,0,1,322.09,460.49Z" style="fill:#263238"></path><path d="M323.58,81l-25.76-.12a6.41,6.41,0,0,0-6.29,6.51l0,4.67a6.4,6.4,0,0,1-6.28,6.52L235,98.35a6.4,6.4,0,0,1-6.23-6.56l0-4.68a6.41,6.41,0,0,0-6.23-6.57l-9.06,0L191,80.4a20.26,20.26,0,0,0-20.36,20.18L169.24,425.7a20.28,20.28,0,0,0,20.18,20.36l132.59.61a20.28,20.28,0,0,0,20.37-20.18l1.37-325.12A20.26,20.26,0,0,0,323.58,81Z" style="fill:#fafafa"></path><path d="M208.33,114.23a95.75,95.75,0,0,1-9.91.26,95.91,95.91,0,0,1-9.91-.26,92.65,92.65,0,0,1,9.91-.26A92.49,92.49,0,0,1,208.33,114.23Z" style="fill:#263238"></path><path d="M208.33,110.48a92.49,92.49,0,0,1-9.91.26,92.65,92.65,0,0,1-9.91-.26,95.91,95.91,0,0,1,9.91-.26A95.75,95.75,0,0,1,208.33,110.48Z" style="fill:#263238"></path><path d="M208.33,106.74a95.75,95.75,0,0,1-9.91.26,95.91,95.91,0,0,1-9.91-.26,95.91,95.91,0,0,1,9.91-.26A95.75,95.75,0,0,1,208.33,106.74Z" style="fill:#263238"></path><rect x="187.56" y="393.7" width="137.88" height="31.54" rx="3.22" style="fill:#407BFF"></rect><g style="opacity:0.30000000000000004"><rect x="202.55" y="400.11" width="19.52" height="19.52" rx="3.12"></rect></g><path d="M212.31,415.53a.5.5,0,0,1-.5-.5V404.71a.5.5,0,0,1,1,0V415A.5.5,0,0,1,212.31,415.53Z" style="fill:#fff"></path><path d="M217.38,410.37H207.24a.5.5,0,0,1-.5-.5.5.5,0,0,1,.5-.5h10.14a.5.5,0,0,1,.5.5A.5.5,0,0,1,217.38,410.37Z" style="fill:#fff"></path><path d="M239.2,411.72h-3.45l-.71,1.63h-1l2.94-6.49h.92l2.94,6.49h-1Zm-.33-.74-1.4-3.17-1.4,3.17Z" style="fill:#fff"></path><path d="M241.85,406.86h2.73a3.25,3.25,0,1,1,0,6.49h-2.73Zm2.68,5.68a2.44,2.44,0,1,0,0-4.87h-1.76v4.87Z" style="fill:#fff"></path><path d="M249.51,406.86h2.73a3.25,3.25,0,1,1,0,6.49h-2.73Zm2.67,5.68a2.44,2.44,0,1,0,0-4.87h-1.75v4.87Z" style="fill:#fff"></path><path d="M260.94,407.67h-2.22v-.81h5.36v.81h-2.22v5.68h-.92Z" style="fill:#fff"></path><path d="M264.47,410.1a3.45,3.45,0,1,1,3.46,3.32A3.3,3.3,0,0,1,264.47,410.1Zm6,0a2.52,2.52,0,1,0-2.51,2.5A2.44,2.44,0,0,0,270.44,410.1Z" style="fill:#fff"></path><path d="M274.75,410.1a3.28,3.28,0,0,1,3.44-3.31,3.18,3.18,0,0,1,2.46,1l-.6.58a2.39,2.39,0,0,0-1.82-.77,2.5,2.5,0,1,0,0,5,2.4,2.4,0,0,0,1.82-.78l.6.58a3.2,3.2,0,0,1-2.47,1A3.28,3.28,0,0,1,274.75,410.1Z" style="fill:#fff"></path><path d="M286,411.72h-3.45l-.71,1.63h-1l2.94-6.49h.92l2.94,6.49h-1Zm-.33-.74-1.4-3.17-1.4,3.17Z" style="fill:#fff"></path><path d="M292.94,413.35l-1.39-2-.41,0h-1.6v2h-.93v-6.49h2.53c1.68,0,2.7.85,2.7,2.26a2.06,2.06,0,0,1-1.42,2.05l1.53,2.18Zm0-4.23c0-.92-.62-1.45-1.81-1.45h-1.57v2.92h1.57C292.3,410.59,292.92,410.05,292.92,409.12Z" style="fill:#fff"></path><path d="M296.54,407.67h-2.22v-.81h5.36v.81h-2.22v5.68h-.92Z" style="fill:#fff"></path><polygon points="198.56 333.72 200.25 337.16 204.05 337.71 201.3 340.39 201.95 344.17 198.56 342.38 195.16 344.17 195.81 340.39 193.06 337.71 196.86 337.16 198.56 333.72" style="fill:#407BFF"></polygon><polygon points="212.58 333.72 214.28 337.16 218.07 337.71 215.33 340.39 215.97 344.17 212.58 342.38 209.18 344.17 209.83 340.39 207.08 337.71 210.88 337.16 212.58 333.72" style="fill:#407BFF"></polygon><polygon points="226.6 333.72 228.3 337.16 232.1 337.71 229.35 340.39 230 344.17 226.6 342.38 223.2 344.17 223.85 340.39 221.1 337.71 224.9 337.16 226.6 333.72" style="fill:#407BFF"></polygon><polygon points="240.62 333.72 242.32 337.16 246.12 337.71 243.37 340.39 244.02 344.17 240.62 342.38 237.22 344.17 237.87 340.39 235.13 337.71 238.92 337.16 240.62 333.72" style="fill:#407BFF"></polygon><polygon points="254.64 333.72 256.34 337.16 260.14 337.71 257.39 340.39 258.04 344.17 254.64 342.38 251.25 344.17 251.9 340.39 249.15 337.71 252.95 337.16 254.64 333.72" style="fill:#e0e0e0"></polygon><path d="M275.21,341.69v.78h-4.47v-.61l2.54-2.44c.65-.64.78-1,.78-1.42,0-.64-.45-1-1.33-1a1.94,1.94,0,0,0-1.58.67l-.61-.52a2.85,2.85,0,0,1,2.27-.94c1.3,0,2.14.66,2.14,1.73a2.5,2.5,0,0,1-1,1.95l-1.9,1.83Z"></path><path d="M280.19,340.64c0,1-.77,1.9-2.35,1.9a3.51,3.51,0,0,1-2.28-.76l.41-.7a2.79,2.79,0,0,0,1.87.67c.93,0,1.47-.43,1.47-1.11s-.48-1.08-1.54-1.08h-.5v-.62l1.56-1.92h-3v-.77h4.1v.6l-1.62,2C279.56,339,280.19,339.68,280.19,340.64Z"></path><path d="M288.07,342.47l-1.34-1.91H284.8v1.9h-.89v-6.22h2.43c1.61,0,2.59.82,2.59,2.17a2,2,0,0,1-1.37,2l1.48,2.09Zm0-4.05c0-.89-.59-1.4-1.73-1.4H284.8v2.8h1.51C287.45,339.82,288,339.3,288,338.42Z"></path><path d="M294.48,340.4h-3.82a1.59,1.59,0,0,0,1.7,1.37,1.71,1.71,0,0,0,1.36-.57l.47.55a2.56,2.56,0,0,1-4.38-1.64,2.31,2.31,0,0,1,2.36-2.4,2.27,2.27,0,0,1,2.33,2.43A2.46,2.46,0,0,1,294.48,340.4Zm-3.82-.62h3a1.52,1.52,0,0,0-3,0Z"></path><path d="M299.75,337.76l-2.06,4.71h-.87l-2.06-4.71h.89l1.62,3.77,1.65-3.77Z"></path><path d="M300.4,336.3a.56.56,0,0,1,.58-.56.55.55,0,0,1,.57.54.58.58,0,0,1-1.15,0Zm.15,1.46h.85v4.71h-.85Z"></path><path d="M307.26,340.4h-3.82a1.6,1.6,0,0,0,1.71,1.37,1.74,1.74,0,0,0,1.36-.57l.47.55a2.56,2.56,0,0,1-4.39-1.64,2.31,2.31,0,0,1,2.36-2.4,2.27,2.27,0,0,1,2.33,2.43A2.46,2.46,0,0,1,307.26,340.4Zm-3.82-.62h3a1.52,1.52,0,0,0-3,0Z"></path><path d="M315.49,337.76l-1.75,4.71h-.82l-1.36-3.58-1.38,3.58h-.81l-1.75-4.71h.81l1.36,3.75,1.42-3.75h.72l1.4,3.76,1.4-3.76Z"></path><path d="M315.7,342l.35-.68a3,3,0,0,0,1.65.49c.79,0,1.12-.24,1.12-.64,0-1.05-3-.14-3-2,0-.85.75-1.42,2-1.42a3.42,3.42,0,0,1,1.72.43l-.37.67a2.52,2.52,0,0,0-1.36-.37c-.74,0-1.11.28-1.11.65,0,1.11,3,.21,3,2,0,.86-.79,1.4-2,1.4A3.39,3.39,0,0,1,315.7,342Z"></path><path d="M198.57,369.1V371h-1V369.1a6.57,6.57,0,0,1-4-1.42l.6-1.28a5.67,5.67,0,0,0,3.38,1.31v-3.79c-1.8-.45-3.7-1-3.7-3.25,0-1.62,1.16-3,3.7-3.24v-1.87h1v1.86a6.5,6.5,0,0,1,3.33,1l-.54,1.31a6,6,0,0,0-2.79-.91v3.81c1.84.46,3.8,1,3.8,3.24C202.37,367.48,201.16,368.89,198.57,369.1Zm-1-6.74v-3.54c-1.46.18-2.1.92-2.1,1.79S196.35,362.05,197.53,362.36Zm3.24,3.6c0-1-1-1.46-2.2-1.78v3.52C200.1,367.55,200.77,366.85,200.77,366Z"></path><path d="M218.2,366.17H216V369h-1.58v-2.82h-6.37V365l5.86-7.5h1.77l-5.62,7.24h4.41v-2.49H216v2.49h2.18Z"></path><path d="M219.18,363.26c0-3.73,2-5.86,4.69-5.86s4.66,2.13,4.66,5.86-2,5.86-4.66,5.86S219.18,367,219.18,363.26Zm7.72,0c0-2.93-1.25-4.4-3-4.4s-3.05,1.47-3.05,4.4,1.25,4.4,3.05,4.4S226.9,366.19,226.9,363.26Z"></path><path d="M229.87,368a1.09,1.09,0,0,1,1.12-1.11,1.07,1.07,0,0,1,1.08,1.11,1.09,1.09,0,0,1-1.08,1.13A1.11,1.11,0,0,1,229.87,368Z"></path><path d="M242.82,365.75c0,2.08-1.76,3.37-4.56,3.37s-4.54-1.29-4.54-3.37a2.84,2.84,0,0,1,2-2.77,2.59,2.59,0,0,1-1.6-2.47c0-1.92,1.65-3.11,4.13-3.11s4.15,1.19,4.15,3.11a2.6,2.6,0,0,1-1.62,2.47A2.86,2.86,0,0,1,242.82,365.75Zm-1.63-.05c0-1.26-1.12-2.05-2.93-2.05s-2.9.79-2.9,2.05,1.08,2.1,2.9,2.1S241.19,367,241.19,365.7Zm-5.44-5.13c0,1.13.93,1.84,2.51,1.84s2.55-.71,2.55-1.84-1-1.85-2.55-1.85S235.75,359.43,235.75,360.57Z"></path><path d="M244.33,363.26c0-3.73,2-5.86,4.68-5.86s4.67,2.13,4.67,5.86-2,5.86-4.67,5.86S244.33,367,244.33,363.26Zm7.71,0c0-2.93-1.24-4.4-3-4.4s-3,1.47-3,4.4,1.24,4.4,3,4.4S252,366.19,252,363.26Z"></path><rect x="201.82" y="186.06" width="109.35" height="103.71" rx="6.79" transform="translate(-0.38 0.41) rotate(-0.09)" style="fill:#407BFF"></rect><rect x="235.93" y="250.99" width="2.24" height="19.67" transform="translate(-0.41 0.37) rotate(-0.09)" style="fill:#263238"></rect><rect x="243.82" y="250.98" width="2.24" height="10.04" transform="translate(-0.42 0.4) rotate(-0.09)" style="fill:#263238"></rect><rect x="266.36" y="250.94" width="2.24" height="10.04" transform="translate(-0.41 0.43) rotate(-0.09)" style="fill:#263238"></rect><rect x="276.31" y="250.93" width="2.24" height="19.67" transform="translate(-0.42 0.45) rotate(-0.09)" style="fill:#263238"></rect><path d="M229.64,230.39,236,252l42.53-.07,6.67-20.75s-4.47-1.41-7.31-.8l-.84-23a3.17,3.17,0,0,0-4.43-2.79l-4.12,1.81-24,0-2.76-1.38a3.12,3.12,0,0,0-4.52,2.82l.2,22.76A18.09,18.09,0,0,0,229.64,230.39Z" style="fill:#fafafa"></path><path d="M244.32,241.64a16.49,16.49,0,0,0,9,5,25.18,25.18,0,0,0,10.37-.22c1.86-.39,3.86-1.07,4.82-2.7s.57-3.82.12-5.72a26.67,26.67,0,0,0-2.42-7.11,9.07,9.07,0,0,0-5.7-4.58c-3.33-.69-6.67,1.24-9.13,3.59a25.73,25.73,0,0,0-6.88,11.33" style="fill:#e0e0e0"></path><path d="M244.91,239.47c-.17,0-.32-7.36-.33-16.45s.11-16.45.28-16.45.32,7.37.33,16.45S245.08,239.47,244.91,239.47Z" style="fill:#263238"></path><path d="M268.94,239.44c-.17,0-.32-7.37-.34-16.45s.11-16.46.28-16.46.32,7.37.34,16.45S269.1,239.43,268.94,239.44Z" style="fill:#263238"></path><path d="M277.86,230.38a5.66,5.66,0,0,1-1.11.33l-.6.16-.69.26-.8.31-.85.46a8.81,8.81,0,0,0-3.35,3.42,10.8,10.8,0,0,0-1.15,6l0,.31H269l-11.37.05-12.74,0h-.27v-.26a11.68,11.68,0,0,0-1.51-5.47,12.33,12.33,0,0,0-2.81-3.42,16.77,16.77,0,0,0-3.33-2.07,4.32,4.32,0,0,1,1,.32,11.17,11.17,0,0,1,2.53,1.5,12.3,12.3,0,0,1,3,3.45,11.86,11.86,0,0,1,1.66,5.68l-.27-.27,12.74,0H269l-.27.31a11.06,11.06,0,0,1,1.3-6.31,8.9,8.9,0,0,1,3.59-3.48l.89-.44.84-.28.71-.23.62-.12A6,6,0,0,1,277.86,230.38Z" style="fill:#263238"></path><path d="M244.45,241.54c0,.1-.79.26-2,.8a9.86,9.86,0,0,0-5.77,7.69c-.19,1.29-.11,2.11-.21,2.12a4.25,4.25,0,0,1-.22-2.16,9.22,9.22,0,0,1,6-8.05A4.37,4.37,0,0,1,244.45,241.54Z" style="fill:#263238"></path><path d="M278.08,252.38c-.1,0-.12-.91-.48-2.3a11.78,11.78,0,0,0-7-8.12c-1.32-.55-2.22-.7-2.2-.8a5.21,5.21,0,0,1,2.36.39A11,11,0,0,1,278,250,5.23,5.23,0,0,1,278.08,252.38Z" style="fill:#263238"></path><path d="M311.81,367.91h-.11l-.08,0a.45.45,0,0,1-.17-.11l-3.57-3.65a4.36,4.36,0,0,1-1.11-4.35,2.92,2.92,0,0,1,4.73-1.27,2.79,2.79,0,0,1,.31.39,2.47,2.47,0,0,1,.33-.41,2.74,2.74,0,0,1,2-.73,2.69,2.69,0,0,1,2.69,2h0a4.34,4.34,0,0,1-1.11,4.35l-3.57,3.65A.51.51,0,0,1,311.81,367.91Zm-2.29-9.17h0a1.68,1.68,0,0,0-1.75,1.32,3.34,3.34,0,0,0,.87,3.36l3.21,3.28,3.21-3.28a3.37,3.37,0,0,0,.88-3.36,1.69,1.69,0,0,0-1.75-1.32,1.72,1.72,0,0,0-1.31.45,2.31,2.31,0,0,0-.53,1.47.4.4,0,0,1-.05.24.5.5,0,0,1-.95-.21h0v-.06a2.19,2.19,0,0,0-.53-1.43A1.69,1.69,0,0,0,309.52,358.74Z" style="fill:#407BFF"></path><path d="M294.23,157.93c0,.14-16.9.26-37.73.26s-37.73-.12-37.73-.26,16.89-.26,37.73-.26S294.23,157.78,294.23,157.93Z" style="fill:#263238"></path><rect x="227.74" y="147.47" width="56.22" height="3.2" style="fill:#407BFF"></rect><path d="M307.53,317.49c0,.14-22.85.26-51,.26s-51-.12-51-.26,22.85-.26,51-.26S307.53,317.34,307.53,317.49Z" style="fill:#263238"></path><path d="M293.17,308.68c0,.15-16.42.26-36.67.26s-36.68-.11-36.68-.26,16.42-.26,36.68-.26S293.17,308.54,293.17,308.68Z" style="fill:#263238"></path><path d="M325.83,114.57a24.05,24.05,0,0,1-3.76.2c-2.34,0-5.6.09-9.27.09h-.25l0-.26c-.07-.49-.14-1-.21-1.53-.63-4.51-1.15-8.53-1.45-11.14l.18.16a21,21,0,0,1-3.35-.19,22,22,0,0,1,3.35-.18h.16l0,.17c.43,2.59,1,6.6,1.66,11.11.07.52.14,1,.21,1.53l-.29-.25c3.67,0,6.93,0,9.27.09A27.61,27.61,0,0,1,325.83,114.57Z" style="fill:#263238"></path><path d="M312.43,111.87a4.44,4.44,0,0,1,1-.09l2.79-.09c2.38,0,5.73-.08,9.61-.1l-.27.23c.28-1.62.58-3.37.9-5.18.17-.93.33-1.85.48-2.72l.29.34c-4.51,0-8.48,0-11.33-.1l-3.36-.08a5.44,5.44,0,0,1-1.22-.11,5.17,5.17,0,0,1,1.22-.1l3.36-.09c2.85,0,6.82-.09,11.33-.1h.35l-.06.34c-.16.88-.32,1.79-.48,2.72-.32,1.81-.64,3.56-.93,5.18l0,.24h-.24c-3.88,0-7.23-.05-9.61-.1l-2.79-.08A3.49,3.49,0,0,1,312.43,111.87Z" style="fill:#263238"></path><path d="M316.06,118.11c-.09,0-.1-.51-.64-.87a1.11,1.11,0,0,0-1-.1,1,1,0,0,0,0,1.94,1.11,1.11,0,0,0,1-.1c.54-.36.55-.89.64-.87s.09.12.07.35a1.29,1.29,0,0,1-.46.85,1.49,1.49,0,0,1-1.45.28,1.56,1.56,0,0,1,0-3,1.49,1.49,0,0,1,1.45.28,1.29,1.29,0,0,1,.46.85C316.15,118,316.1,118.11,316.06,118.11Z" style="fill:#263238"></path><path d="M324.45,118.11c-.1,0-.1-.51-.64-.87a1.12,1.12,0,0,0-1-.1,1,1,0,0,0,0,1.94,1.12,1.12,0,0,0,1-.1c.54-.36.54-.89.64-.87s.09.12.07.35a1.29,1.29,0,0,1-.46.85,1.49,1.49,0,0,1-1.45.28,1.56,1.56,0,0,1,0-3,1.49,1.49,0,0,1,1.45.28,1.29,1.29,0,0,1,.46.85C324.54,118,324.48,118.11,324.45,118.11Z" style="fill:#263238"></path><path d="M333.12,103.17a5.55,5.55,0,1,1-5.54-5.55A5.54,5.54,0,0,1,333.12,103.17Z" style="fill:#407BFF"></path><path d="M328.09,100.93v4.48h-.63v-3.92h-1v-.56Z" style="fill:#fff"></path></g><g id="freepik--Character--inject-2"><rect x="96.3" y="371.94" width="13.23" height="88.32" style="fill:#455a64"></rect><rect x="86.91" y="361.33" width="100.36" height="12.23" style="fill:#455a64"></rect><rect x="103.7" y="409.61" width="69" height="12.23" style="fill:#455a64"></rect><rect x="166.08" y="371.94" width="13.23" height="88.32" style="fill:#455a64"></rect><path d="M187.21,373.38c0,.14-22.49.26-50.23.26s-50.24-.12-50.24-.26,22.49-.26,50.24-.26S187.21,373.23,187.21,373.38Z" style="fill:#263238"></path><path d="M109.59,432.12c-.14,0-.26-6.56-.26-14.64s.12-14.64.26-14.64.26,6.55.26,14.64S109.73,432.12,109.59,432.12Z" style="fill:#263238"></path><path d="M166.06,431.55c-.14,0-.26-6.09-.26-13.6s.12-13.6.26-13.6.26,6.09.26,13.6S166.2,431.55,166.06,431.55Z" style="fill:#263238"></path><path d="M187.79,364.67l-1-.28a18.2,18.2,0,0,0-3.05-.43,28,28,0,0,0-11,2.1c-2.25.83-4.64,1.92-7.24,3a44.19,44.19,0,0,1-8.55,2.8,25.28,25.28,0,0,1-9.91-.11,53.57,53.57,0,0,1-10.18-3.23c-3.38-1.39-6.63-2.88-9.86-4.07a42.53,42.53,0,0,0-9.59-2.48,41.49,41.49,0,0,0-27,5.84l-1.5,1-1,.76c-.57.42-.88.63-.88.63l.85-.66,1-.78,1.48-1a39.57,39.57,0,0,1,10.34-4.64,40.91,40.91,0,0,1,16.7-1.33,42.67,42.67,0,0,1,9.63,2.47c3.24,1.2,6.49,2.68,9.87,4.07A53.66,53.66,0,0,0,147,371.56a25.08,25.08,0,0,0,9.83.12,44.43,44.43,0,0,0,8.53-2.77c2.6-1.08,5-2.17,7.25-3a27.66,27.66,0,0,1,11.11-2,17.44,17.44,0,0,1,3,.47Z" style="fill:#263238"></path><path d="M112.43,367.53a11.24,11.24,0,0,1-2.82,1.2,14.2,14.2,0,0,1-8.1,0l-.14,0,.11-.1a17.44,17.44,0,0,1,6.23-3.89,18.51,18.51,0,0,1,8.43-1,16.55,16.55,0,0,1,2.73.58,8.09,8.09,0,0,1,2.48,1.08,2.43,2.43,0,0,1,1.07,2.34,2.64,2.64,0,0,1-1.77,1.74,39.44,39.44,0,0,1-8.41,1.92,40.44,40.44,0,0,1-5.81.25c-1.37,0-2.13-.14-2.13-.14h.55l1.58.05a43.84,43.84,0,0,0,5.79-.32,40,40,0,0,0,8.35-2,2.43,2.43,0,0,0,1.66-1.59,2.25,2.25,0,0,0-1-2.14,7.88,7.88,0,0,0-2.42-1.06,19.75,19.75,0,0,0-2.69-.57,18.53,18.53,0,0,0-8.34.94,17.71,17.71,0,0,0-6.19,3.83l0-.14a14.35,14.35,0,0,0,8,.1,16.49,16.49,0,0,0,2.12-.77Z" style="fill:#263238"></path><path d="M180.59,370a2.27,2.27,0,0,0,.45,1.07,3.37,3.37,0,0,0,2.84,1.14,3.57,3.57,0,0,0,2-.75,2.29,2.29,0,0,0,.84-2.19,2.46,2.46,0,0,0-1.94-1.71,10.75,10.75,0,0,0-3-.07,27.94,27.94,0,0,0-5.78.87,15.49,15.49,0,0,0-4.36,1.92,12.53,12.53,0,0,0-2.45,2.08c-.25.29-.44.52-.56.68l-.19.24a6.35,6.35,0,0,1,.69-1,11.16,11.16,0,0,1,2.43-2.15,15.23,15.23,0,0,1,4.38-2,27.18,27.18,0,0,1,5.83-.9,10.78,10.78,0,0,1,3.06.08,2.66,2.66,0,0,1,2.09,1.87,2.47,2.47,0,0,1-.92,2.36,3.73,3.73,0,0,1-2.12.77,3.43,3.43,0,0,1-2.92-1.24,2,2,0,0,1-.36-.81A1.44,1.44,0,0,1,180.59,370Z" style="fill:#263238"></path><path d="M185.89,360.91h-.53l-1.52,0c-.66,0-1.47.08-2.4.16s-2,.25-3.14.51a67.85,67.85,0,0,0-8,2.25c-3,1-6.21,2.17-9.71,3.07A31.89,31.89,0,0,1,150.5,368a25.55,25.55,0,0,1-8.05-2,24.47,24.47,0,0,1-4.84-2.82A15.77,15.77,0,0,1,136,361.8l.42.32c.27.23.67.54,1.21.93a25,25,0,0,0,4.85,2.74,25.68,25.68,0,0,0,8,2,31.86,31.86,0,0,0,10-1.09c3.49-.89,6.72-2.07,9.7-3a65,65,0,0,1,8-2.21c1.16-.25,2.22-.36,3.16-.48s1.75-.1,2.41-.13l1.52.06Z" style="fill:#263238"></path><path d="M167.44,460.49s0-.31,0-.89a19.37,19.37,0,0,1,.1-2.55,35,35,0,0,1,2.43-9c1.4-3.7,3.54-7.94,4.92-13a40.62,40.62,0,0,0,1.24-8.08,39.94,39.94,0,0,0-3-17.19c-1.09-2.62-2.3-5.1-3.08-7.62a16.54,16.54,0,0,1-.76-7.36,19.07,19.07,0,0,1,2-6.16A29.69,29.69,0,0,1,177,381.2c1.58-1.55,2.54-2.32,2.54-2.32l-.65.61c-.43.4-1,1-1.84,1.76a30.49,30.49,0,0,0-5.61,7.44,19.16,19.16,0,0,0-2,6.11,16.41,16.41,0,0,0,.77,7.29c.78,2.49,2,5,3.08,7.6a39,39,0,0,1,2.47,8.47,39.43,39.43,0,0,1-.73,16.92c-1.39,5.07-3.55,9.3-5,13a35.16,35.16,0,0,0-2.49,9,20.82,20.82,0,0,0-.14,2.54C167.45,460.18,167.44,460.49,167.44,460.49Z" style="fill:#263238"></path><path d="M165.78,405.3s.09.14.24.42l.64,1.23c.55,1.07,1.35,2.62,2.25,4.57a53.55,53.55,0,0,1,2.72,7.06,29.4,29.4,0,0,1,1.33,9.15,34.88,34.88,0,0,1-1.48,9.13,65.38,65.38,0,0,1-2.59,7.11c-.84,2-1.58,3.55-2.09,4.64l-.6,1.25c-.14.29-.22.43-.22.43l.18-.45c.16-.34.34-.76.57-1.26.49-1.1,1.2-2.69,2-4.67,1.59-4,3.85-9.6,4-16.19a29.45,29.45,0,0,0-1.31-9.09,54,54,0,0,0-2.67-7.05c-.88-2-1.65-3.52-2.18-4.6l-.61-1.24Z" style="fill:#263238"></path><path d="M175.69,400.24a.57.57,0,0,1-.17-.28,1,1,0,0,1,.18-.89,1.19,1.19,0,0,1,1.38-.3,2.26,2.26,0,0,1,1.26,1.44,6.47,6.47,0,0,1,.38,2.31,5.15,5.15,0,0,1-.69,2.6,2,2,0,0,1-1.17.91,1.35,1.35,0,0,1-1.36-.7,12.38,12.38,0,0,1-1.25-2.93,14.14,14.14,0,0,1-.39-6.11,13.78,13.78,0,0,1,1.67-4.71,13.27,13.27,0,0,1,2-2.7,7.39,7.39,0,0,1,.91-.84,2.23,2.23,0,0,1-.22.23c-.15.15-.37.37-.63.66a14,14,0,0,0-3.16,13.41,12.17,12.17,0,0,0,1.22,2.88,1.15,1.15,0,0,0,1.15.61,1.79,1.79,0,0,0,1.06-.81,5.09,5.09,0,0,0,.66-2.5,6.21,6.21,0,0,0-.34-2.26,2.13,2.13,0,0,0-1.16-1.38,1.11,1.11,0,0,0-1.28.24.94.94,0,0,0-.2.83A1.15,1.15,0,0,0,175.69,400.24Z" style="fill:#263238"></path><path d="M180.73,434.66l-.13.23-.41.67c-.36.57-.85,1.41-1.41,2.48a37.81,37.81,0,0,0-4.29,18.14c0,1.2.07,2.18.14,2.85,0,.28.05.53.07.77s0,.27,0,.27a26.76,26.76,0,0,1-.37-3.89,36.22,36.22,0,0,1,1-9.39,36.59,36.59,0,0,1,3.35-8.82A27.5,27.5,0,0,1,180.73,434.66Z" style="fill:#263238"></path><path d="M165.59,417.69a61.25,61.25,0,0,1-7.94,2.27,73.25,73.25,0,0,1-30.74.15c-3.31-.67-6.21-1.6-8.67-2.29a27.16,27.16,0,0,0-5.92-1.07c-.71,0-1.27,0-1.64,0l-.57,0a12,12,0,0,1,2.21-.1,26.2,26.2,0,0,1,6,1c2.47.67,5.36,1.58,8.67,2.24a74.72,74.72,0,0,0,30.66-.1c2.49-.55,4.49-1.09,5.85-1.5l1.57-.48C165.39,417.73,165.59,417.69,165.59,417.69Z" style="fill:#263238"></path><path d="M149.24,413.77a15.18,15.18,0,0,1-2.9,1A19.29,19.29,0,0,1,138,415a4.57,4.57,0,0,1-1.29-.47,2.39,2.39,0,0,1-1-1,1.26,1.26,0,0,1,.29-1.44,2.92,2.92,0,0,1,1.43-.62,45.39,45.39,0,0,1,6.62-.62,47.11,47.11,0,0,1,15,2.11c1,.31,2,.66,2.89,1l.23.09-.22.1A49.48,49.48,0,0,1,148.37,418a49,49,0,0,1-11.42.25,47.77,47.77,0,0,1-7.54-1.3c-1.74-.47-2.68-.79-2.68-.79s.25.05.7.18,1.12.34,2,.53a50.27,50.27,0,0,0,18.92.94,49.65,49.65,0,0,0,13.51-3.91v.19c-.91-.34-1.88-.68-2.88-1A47.63,47.63,0,0,0,144,411a46.2,46.2,0,0,0-6.58.6,2.79,2.79,0,0,0-1.35.57,1.11,1.11,0,0,0-.27,1.26,3.24,3.24,0,0,0,2.21,1.4,19.41,19.41,0,0,0,8.28-.15,21.94,21.94,0,0,0,2.18-.65Z" style="fill:#263238"></path><path d="M110.58,414.67a2.61,2.61,0,0,1,.54-.33,13.4,13.4,0,0,1,1.55-.72,17.07,17.07,0,0,1,11.11-.52,13.53,13.53,0,0,1,1.61.58,3.27,3.27,0,0,1,.56.27,4.29,4.29,0,0,1-.59-.2c-.38-.14-.93-.32-1.62-.51a18.1,18.1,0,0,0-11,.52c-.67.25-1.21.48-1.57.66A4.89,4.89,0,0,1,110.58,414.67Z" style="fill:#263238"></path><path d="M103,435.43s-.22-.26-.62-.78a11.46,11.46,0,0,1-1.5-2.45,5.36,5.36,0,0,1-.45-2,3.82,3.82,0,0,1,.82-2.31,2.8,2.8,0,0,1,2.5-1.2,2.52,2.52,0,0,1,1.39.71,4,4,0,0,1,.87,1.39,11.66,11.66,0,0,1,.62,3.45,25.33,25.33,0,0,1,0,3.79,25,25,0,0,1-.66,4q-.25,1-.6,2a7.52,7.52,0,0,1-.92,2,2.3,2.3,0,0,1-1.93,1.11,2.56,2.56,0,0,1-1.93-1.23,6.94,6.94,0,0,1-1-2.14c-.24-.75-.45-1.52-.62-2.31a28.56,28.56,0,0,1-.42-9.88,55.34,55.34,0,0,1,2.37-9.63c1-3.05,2-6,2.66-8.83a41.24,41.24,0,0,0,.79-15.48,42.2,42.2,0,0,0-2.73-10.14c-.48-1.15-.87-2-1.17-2.61s-.43-.9-.43-.9.17.3.47.88.72,1.46,1.21,2.6a41.31,41.31,0,0,1,2.05,25.7c-.69,2.86-1.68,5.8-2.66,8.84a56.36,56.36,0,0,0-2.36,9.6,28.67,28.67,0,0,0,.42,9.81c.17.78.38,1.54.61,2.29a7,7,0,0,0,1,2.09,2.42,2.42,0,0,0,1.77,1.15,2.13,2.13,0,0,0,1.77-1,7.05,7.05,0,0,0,.9-1.95c.23-.67.44-1.35.6-2a26.06,26.06,0,0,0,.67-4,25.09,25.09,0,0,0,0-3.77,11.8,11.8,0,0,0-.59-3.4,2.9,2.9,0,0,0-2.15-2,2.71,2.71,0,0,0-2.39,1.14,3.72,3.72,0,0,0-.81,2.24,5.11,5.11,0,0,0,.43,2,12,12,0,0,0,1.45,2.45Z" style="fill:#263238"></path><path d="M109.05,438.16a17.1,17.1,0,0,1,0,3.69,22.73,22.73,0,0,1-2.64,8.48c-1.68,3.05-3.81,5.54-5.85,6.64a5.7,5.7,0,0,1-2.59.76,3.54,3.54,0,0,1-1-.11,8.42,8.42,0,0,0,1,0,6.06,6.06,0,0,0,2.53-.81c2-1.11,4.07-3.58,5.74-6.61a23.42,23.42,0,0,0,2.67-8.4,24.37,24.37,0,0,0,.18-2.68v-.73A.76.76,0,0,1,109.05,438.16Z" style="fill:#263238"></path><path d="M97.42,373.44s-.06.16-.18.44a9.77,9.77,0,0,0-.44,1.29,13.06,13.06,0,0,0-.32,4.95,25,25,0,0,0,2,7.1c1.08,2.58,2.53,5.31,3.57,8.39a20.84,20.84,0,0,1,1,4.63,20.1,20.1,0,0,1-.13,4.41,29.28,29.28,0,0,1-2,7.16,48.36,48.36,0,0,1-2.16,4.53c-.56,1.05-.91,1.6-.91,1.6l.21-.42.63-1.21c.53-1.06,1.3-2.59,2.09-4.55a29.46,29.46,0,0,0,2-7.14,19.67,19.67,0,0,0,.11-4.36,20,20,0,0,0-1-4.58c-1-3.06-2.47-5.79-3.55-8.38a25.19,25.19,0,0,1-2-7.16,12.81,12.81,0,0,1,.39-5A8.12,8.12,0,0,1,97.42,373.44Z" style="fill:#263238"></path><path d="M108.19,401.49s0-.11,0-.31.11-.5.16-.88a18.7,18.7,0,0,0,.22-3.3,33,33,0,0,0-2.32-10.62c-1.5-4-3-7.57-3.79-10.27a25.75,25.75,0,0,1-1-4.43,1.11,1.11,0,0,1,.08.31c0,.2.09.5.19.88.16.76.44,1.86.85,3.2.8,2.68,2.35,6.23,3.85,10.24A32.27,32.27,0,0,1,108.77,397a16.88,16.88,0,0,1-.29,3.31A9.91,9.91,0,0,1,108.19,401.49Z" style="fill:#263238"></path><polygon points="85.11 403.43 79.33 448.51 99.07 451.69 111.31 405.89 85.11 403.43" style="fill:#ffbe9d"></polygon><path d="M79.93,442.55l-.26,1.29s-23.93,5-25,9.05l44.14,7.37L101,445.71A25.9,25.9,0,0,1,79.93,442.55Z" style="fill:#407BFF"></path><g style="opacity:0.6000000000000001"><path d="M95.64,449.59a1.75,1.75,0,0,1,.86,2.23,1.81,1.81,0,0,1-2.27.89,1.72,1.72,0,1,1,1.56-3" style="fill:#fff"></path></g><g style="opacity:0.6000000000000001"><path d="M98.83,460.26l.52-3.5L56.85,451s-2.12.52-2.16,1.91Z" style="fill:#fff"></path></g><path d="M79.49,443.93c0,.22,1,.49,2,1.35s1.32,1.84,1.54,1.79.13-1.33-1-2.35S79.48,443.73,79.49,443.93Z" style="fill:#263238"></path><path d="M74.5,445c-.08.2.78.72,1.34,1.74s.59,2,.81,2,.58-1.14-.14-2.4S74.55,444.84,74.5,445Z" style="fill:#263238"></path><path d="M70.83,450.06c.19.07.69-.94.36-2.19s-1.25-1.88-1.38-1.72.39.88.64,1.92S70.62,450,70.83,450.06Z" style="fill:#263238"></path><polygon points="112.6 403.92 115.8 443.3 133.88 440.68 135.1 402 112.6 403.92" style="fill:#ffbe9d"></polygon><path d="M133.94,432.9s-12.13,9.79-18.89,2.6l-1.34,3.83-5.31,27a3.51,3.51,0,0,0,2.36,4.08,3.58,3.58,0,0,0,3.67-1c4.9-5.27,22.82-24.72,22.45-27.15l-.56-6.48a3.29,3.29,0,0,0-2.38-2.88Z" style="fill:#407BFF"></path><g style="opacity:0.6000000000000001"><path d="M111.4,470.51,136.72,440l.1,1.42c.25,1.52-.39,2.18-1.07,3.22-2,3.08-7.66,10.06-21.22,24.76a3.62,3.62,0,0,1-3.13,1.11Z" style="fill:#fff"></path></g><g style="opacity:0.6000000000000001"><path d="M132.39,436.08a2,2,0,0,0-.39,2.75,2.08,2.08,0,0,0,2.79.39,2,2,0,1,0-2.55-3" style="fill:#fff"></path></g><path d="M118.23,455.34c-.19.1-1.09-1.59-3.2-2.39s-4-.26-4-.46.38-.37,1.17-.54a5.62,5.62,0,0,1,3.12.32,5.39,5.39,0,0,1,2.45,1.89C118.22,454.82,118.31,455.31,118.23,455.34Z" style="fill:#263238"></path><path d="M116.09,460c-.15.16-1.33-.85-3.14-1.22s-3.31,0-3.38-.19,1.49-1,3.55-.53S116.27,459.89,116.09,460Z" style="fill:#263238"></path><path d="M122.38,449.28c-.15.17-2-1.4-4.72-2.21s-5.15-.58-5.18-.8,2.45-.82,5.41.09S122.54,449.17,122.38,449.28Z" style="fill:#263238"></path><path d="M122.39,441.19c-.08.21-2-.43-4.5-.35s-4.4.81-4.48.6,1.8-1.27,4.46-1.33S122.49,441,122.39,441.19Z" style="fill:#263238"></path><path d="M116.47,440.88a3.09,3.09,0,0,1,.1-1.27,8.65,8.65,0,0,1,1.42-3.19,4,4,0,0,1,1.92-1.68,1.43,1.43,0,0,1,1.55.48,2.15,2.15,0,0,1,.37,1.56,5,5,0,0,1-4.86,4,5.76,5.76,0,0,1-5.31-3.54,1.93,1.93,0,0,1,.1-1.62,1.43,1.43,0,0,1,1.53-.56,4.92,4.92,0,0,1,2.12,1.38,9.69,9.69,0,0,1,2,2.84,2.86,2.86,0,0,1,.39,1.21,15.36,15.36,0,0,0-2.79-3.67,4.61,4.61,0,0,0-1.88-1.16.76.76,0,0,0-.84.3,1.28,1.28,0,0,0,0,1.07,5.13,5.13,0,0,0,4.63,3,4.32,4.32,0,0,0,4.18-3.34,1.57,1.57,0,0,0-.21-1.1.76.76,0,0,0-.85-.28,3.62,3.62,0,0,0-1.66,1.39A12.87,12.87,0,0,0,116.47,440.88Z" style="fill:#263238"></path><path d="M189.7,321s9.74,34.63-16.81,40.64l-42.34.42L105,430.26l-25.49-1.78,9.32-76.68a22.59,22.59,0,0,1,17.62-19.49l54.84-12Z" style="fill:#263238"></path><path d="M110.13,168.42c-19.3-3.31-21.09,14.14-21,19.15S91,197,92.77,201.71s.64,11.09-.84,15.87c-1.74,5.61-7.27,10.75-5.3,16.27,1.56,4.33,7.29,6.46,8,11,.56,3.61-2.35,6.74-3.42,10.23-2,6.57,2.61,13.16,7,18.48,1.8,2.2,4,4.59,6.81,4.63,3.93.05,6.26-4.2,8-7.7a66.68,66.68,0,0,1,21.08-24.37" style="fill:#263238"></path><path d="M66.74,275.17l-11.36-11.5a.84.84,0,0,0-.8-.22l-13.19,3.4a.83.83,0,0,0-.39,1.38L62.82,291s16.32-4.44,15.84-4.66S66.74,275.17,66.74,275.17Z" style="fill:#263238"></path><path d="M51.16,281.3l.25-.63a1.69,1.69,0,0,1,1.67-1.07c2.66.14,8.71.49,8.7.7a1.73,1.73,0,0,1-1.34,2.31,18.59,18.59,0,0,1-5.33,0l2.82,3.21.91-1.21a1.3,1.3,0,0,1,1.07-.38l5,.6s.44,1.95-1,2.26a13.58,13.58,0,0,1-3.33.15L60,291,65.23,295,63.31,298l-7-3.53-1.12-3.57a1.77,1.77,0,0,1,.09-1.24l.37-.8-1.33-.92a1.72,1.72,0,0,1-.71-1.69l.17-1-2.21-2A1.71,1.71,0,0,1,51.16,281.3Z" style="fill:#ffbe9d"></path><polygon points="74.23 291.69 74.23 291.69 70.76 288.75 60.54 287.28 59.96 290.95 56.33 294.43 70.14 301.41 74.23 291.69" style="fill:#ffbe9d"></polygon><path d="M69.25,276a2.87,2.87,0,0,0,2-.66l.56-.47a3.84,3.84,0,0,1,3.89-1.42l7.86,3.05,8.48,6.87L87.84,294l-14.59-3.8a5.92,5.92,0,0,1-3.67-2.82l-1.4-2.49s-5-1.93-4.55-4.7l-10.87-2.25a1.6,1.6,0,0,1,1-2.2C55.1,275.14,65.73,275.75,69.25,276Z" style="fill:#ffbe9d"></path><path d="M71.58,281.81a88.72,88.72,0,0,1-9.46-1.7,87.75,87.75,0,0,1-9.36-2.2,87.5,87.5,0,0,1,9.46,1.69A89.12,89.12,0,0,1,71.58,281.81Z" style="fill:#eb996e"></path><path d="M72.1,286.84c-.09.12-.94-.35-2-.88s-2-.94-1.91-1.08,1,.05,2.15.61S72.18,286.73,72.1,286.84Z" style="fill:#eb996e"></path><path d="M62.09,293.52A17.3,17.3,0,0,1,59.53,291l-.07-.08,0-.12c.17-.93.31-2,.59-3.16a1.11,1.11,0,0,1,.56-.67,2.1,2.1,0,0,1,.73-.16l1.27-.09a6.68,6.68,0,0,1,1.18,0,1.14,1.14,0,0,0,.8-.18,1.48,1.48,0,0,0,.38-1.19c0-.32-.11-.48-.08-.5s.2.12.28.47a1.59,1.59,0,0,1-.34,1.5,1.49,1.49,0,0,1-1.07.33,7.35,7.35,0,0,0-1.11.07l-1.25.11c-.47,0-.74.12-.86.5-.24,1-.43,2.18-.63,3.08l-.06-.2A18.35,18.35,0,0,1,62.09,293.52Z" style="fill:#eb996e"></path><path d="M54.35,281.29c.88,1.31,6.5,1.5,7,1.39a1.76,1.76,0,0,1,1.32.24.75.75,0,0,1-.13,1.31l-5.11,2.15Z" style="fill:#ffbe9d"></path><path d="M61.56,284.47s-.28.06-.74.07l-.82,0-.48.06-.22.07-.08,0s0,.07,0-.07l0,.12c-.31.5-.67,1.06-1.08,1.64a15,15,0,0,1-3,3.49,31.72,31.72,0,0,1,2.58-3.79l1.12-1.6,0,.12a.36.36,0,0,1,.19-.29l.18-.09.31-.07a5.06,5.06,0,0,1,.54,0,6.31,6.31,0,0,1,.85.08C61.3,284.33,61.56,284.42,61.56,284.47Z" style="fill:#eb996e"></path><path d="M62,282.65a19.83,19.83,0,0,1-4.51.21,4,4,0,0,0-1.64.17,2.14,2.14,0,0,0-1,.8c-.44.65-.65,1.13-.72,1.1a2.42,2.42,0,0,1,.41-1.3,2.35,2.35,0,0,1,1.12-1.05,4,4,0,0,1,1.82-.24A20.15,20.15,0,0,1,62,282.65Z" style="fill:#eb996e"></path><g style="opacity:0.30000000000000004"><path d="M132.53,306.26c2.13.22,5.29-.63,6.7-2.24a23.86,23.86,0,0,0,3.93-5.21c1.94-4.07,5.43-9.41,7.19-12.76.1,1-2.82,10.64-3.09,15.32-.14,2.56,0,5.34,1.61,7.36,1.1,1.4,2.74,2.26,3.94,3.56a7.73,7.73,0,0,1,.54,9.46c-1,1.42-2.88,2.5-4.52,1.87a3.9,3.9,0,0,1-2-2,20.92,20.92,0,0,1-1-2.68,18.07,18.07,0,0,0-7.44-9.37,55.69,55.69,0,0,0-5.56-3.5"></path></g><path d="M69.42,303.18l21.75,7.27a22,22,0,0,0,22.25-4.87l7.68-7.28-22.72-6.14-12.19,1.37-11.25-3.61Z" style="fill:#407BFF"></path><path d="M91.65,299.34s.36.54,1,1.39a23.58,23.58,0,0,0,2.61,3.1,23.1,23.1,0,0,0,3.13,2.59c.86.59,1.42.91,1.4.94l-.41-.19c-.26-.14-.63-.35-1.07-.63a19.57,19.57,0,0,1-5.78-5.73c-.29-.43-.5-.8-.64-1.06A2.13,2.13,0,0,1,91.65,299.34Z" style="fill:#fafafa"></path><path d="M96.35,301.31a8.72,8.72,0,0,0,.2,2.5,8.46,8.46,0,0,0,1.09,2.26,4.31,4.31,0,0,1-1.3-2.21A4.2,4.2,0,0,1,96.35,301.31Z" style="fill:#fafafa"></path><path d="M94.13,299.68c.06,0,.09,1,.38,2.16s.73,2.06.67,2.09a5.34,5.34,0,0,1-.87-2A5.47,5.47,0,0,1,94.13,299.68Z" style="fill:#fafafa"></path><path d="M93,304.1a7.22,7.22,0,0,1,3.51,1.07c0,.06-.78-.27-1.74-.56S93,304.17,93,304.1Z" style="fill:#fafafa"></path><path d="M91,301.55a6.07,6.07,0,0,1,2.18.84A6.14,6.14,0,0,1,95,303.83c0,.05-.83-.63-1.94-1.26S90.94,301.61,91,301.55Z" style="fill:#fafafa"></path><path d="M93.42,304.14a1.68,1.68,0,0,0-.93-.53c-.12,0-.28,0-.33.09a.21.21,0,0,0,.08.26.58.58,0,0,0,.29.09,2.22,2.22,0,0,0-.42.25c-.06,0-.13.12-.09.18s.12.07.19,0l.49-.1c0,.08-.14.11-.21.16s-.14.17-.07.23a.17.17,0,0,0,.2,0,2.4,2.4,0,0,0,.74-.64" style="fill:#fafafa"></path><path d="M94.07,300a.09.09,0,0,0,0,.15.15.15,0,0,0,.18,0,.42.42,0,0,0,.11-.15,2.57,2.57,0,0,0,.34-1c0-.07,0-.17-.06-.21s-.16,0-.23,0a.89.89,0,0,0-.36.7,1.27,1.27,0,0,0,0-.67c0-.08-.09-.18-.17-.16s-.11.1-.13.18a1.66,1.66,0,0,0,0,.7.75.75,0,0,0-.41-.55.21.21,0,0,0-.19,0,.14.14,0,0,0-.05.16.36.36,0,0,0,.08.15,3.67,3.67,0,0,0,.94.86" style="fill:#fafafa"></path><path d="M91.68,299.33c-.06.05,0,.16.07.17a.17.17,0,0,0,.19-.1.4.4,0,0,0,0-.22,2.93,2.93,0,0,0-.15-1.28c0-.09-.08-.19-.18-.21a.27.27,0,0,0-.24.17,1,1,0,0,0,0,.95,1.57,1.57,0,0,0-.39-.73c-.08-.08-.19-.15-.28-.09s-.07.16,0,.25a2.13,2.13,0,0,0,.4.76,1,1,0,0,0-.75-.4c-.09,0-.18,0-.22.08a.18.18,0,0,0,0,.2.59.59,0,0,0,.18.13,4.72,4.72,0,0,0,1.52.47" style="fill:#fafafa"></path><path d="M78.77,293.26s-.18.62-.43,1.63a23.9,23.9,0,0,0-.64,4,24.57,24.57,0,0,0,.09,4.06c.12,1,.24,1.67.21,1.67s-.06-.15-.13-.44a11.79,11.79,0,0,1-.22-1.22,19,19,0,0,1-.15-4.08,19.76,19.76,0,0,1,.7-4,10.78,10.78,0,0,1,.39-1.18A2,2,0,0,1,78.77,293.26Z" style="fill:#fafafa"></path><path d="M80.35,298.1a8.9,8.9,0,0,0-1.76,1.78,8.65,8.65,0,0,0-1,2.31,4.85,4.85,0,0,1,2.76-4.09Z" style="fill:#fafafa"></path><path d="M80.13,295.36s-.69.71-1.38,1.7-1.09,1.9-1.15,1.87a5.71,5.71,0,0,1,1-2A5.17,5.17,0,0,1,80.13,295.36Z" style="fill:#fafafa"></path><path d="M76.07,297.42A5.08,5.08,0,0,1,77,299a5,5,0,0,1,.52,1.77c-.06,0-.3-.77-.71-1.69S76,297.45,76.07,297.42Z" style="fill:#fafafa"></path><path d="M76.64,294.18a6.43,6.43,0,0,1,.8,2.2,6,6,0,0,1,.1,2.34c-.06,0-.05-1.05-.31-2.3S76.58,294.21,76.64,294.18Z" style="fill:#fafafa"></path><path d="M76.29,297.74a1.71,1.71,0,0,0-.2-1.06c-.06-.1-.17-.22-.29-.19s-.15.14-.15.24a.65.65,0,0,0,.13.28,1.63,1.63,0,0,0-.47-.16c-.07,0-.17,0-.2,0s0,.13.09.18l.4.3c-.08,0-.17,0-.26-.05s-.21,0-.21.09.07.12.14.15a2.28,2.28,0,0,0,1,.13" style="fill:#fafafa"></path><path d="M79.89,295.49a.09.09,0,0,0-.12.09c0,.06.06.11.12.13a.43.43,0,0,0,.19,0,2.74,2.74,0,0,0,1-.39c.06-.05.13-.11.12-.19S81.08,295,81,295a.87.87,0,0,0-.76.19,1.35,1.35,0,0,0,.49-.46c0-.08.08-.18,0-.24s-.15,0-.21,0A1.79,1.79,0,0,0,80,295a.77.77,0,0,0,.15-.67c0-.06,0-.13-.11-.15a.17.17,0,0,0-.16.07.59.59,0,0,0-.06.16,3.87,3.87,0,0,0,0,1.27" style="fill:#fafafa"></path><path d="M78.79,293.27a.11.11,0,0,0-.08.17.18.18,0,0,0,.2.08.4.4,0,0,0,.2-.11,3,3,0,0,0,.87-1,.27.27,0,0,0,0-.27.27.27,0,0,0-.29-.08,1.05,1.05,0,0,0-.73.6,1.51,1.51,0,0,0,.29-.77c0-.11,0-.24-.11-.27s-.17.05-.22.13a1.91,1.91,0,0,0-.31.8,1,1,0,0,0-.2-.83.23.23,0,0,0-.2-.12.2.2,0,0,0-.14.15.56.56,0,0,0,0,.22,4.72,4.72,0,0,0,.63,1.46" style="fill:#fafafa"></path><path d="M174.13,290.38a22,22,0,0,1-5.29-15.61c0-.36.06-.72.09-1.08,1.4-13,3.92-34.06-1.06-44.55C164.6,222.25,144.24,219,144.24,219l-23.55,4.85-10.82,9.49a9.8,9.8,0,0,0-3.21,5.82l-9.9,61.7,20-1.43,1.55-17.91,2.23,23.66s19,14.8,25.2,17.54,17-4.9,25.28-1.51,19.12,0,19.12,0C190.63,311.39,180,297.36,174.13,290.38Z" style="fill:#407BFF"></path><path d="M155.92,226.23l-30.28,54.89-32.71.57-5.56,14,42.29,9.72c4.83.83,8.53.22,11.63-3.58l27.83-51.9S171.34,226.84,155.92,226.23Z" style="fill:#407BFF"></path><g style="opacity:0.30000000000000004"><path d="M73.45,293.52l8.72,2.3a3,3,0,0,1,2.2,3.44h0a3,3,0,0,0,2.55,3.51c7.44,1,25.72,3.51,26.07,3.2s3.57-3.62,3.57-3.62l-29.19-6.7.47-1.68-13.15-3.42Z"></path></g><path d="M119.27,281.23a4.16,4.16,0,0,1-.41-.87l-1-2.5,0,.06a14.17,14.17,0,0,1-3.73-4.65,16.71,16.71,0,0,1-1.6-7.67c0-2.42.23-4.7.3-6.76a24.17,24.17,0,0,0-.33-5.46,14.75,14.75,0,0,0-1.77-4.69s.1.08.24.26a9,9,0,0,1,.58.85,12.17,12.17,0,0,1,1.31,3.51,22.74,22.74,0,0,1,.45,5.54c0,2.09-.27,4.37-.26,6.75a16.52,16.52,0,0,0,1.5,7.46,14.51,14.51,0,0,0,3.52,4.62l0,0v0l.87,2.55A3.86,3.86,0,0,1,119.27,281.23Z" style="fill:#263238"></path><path d="M166.3,291.35a3.91,3.91,0,0,1,.15,1.08,17.65,17.65,0,0,1-.07,3,20.64,20.64,0,0,1-10.52,16,18,18,0,0,1-2.73,1.24,4.06,4.06,0,0,1-1.06.29c0-.09,1.46-.56,3.6-1.85A21.56,21.56,0,0,0,166,295.39C166.35,292.91,166.2,291.35,166.3,291.35Z" style="fill:#263238"></path><path d="M153.89,245.13a2.78,2.78,0,0,1-.3.51c-.2.32-.49.78-.82,1.37a29,29,0,0,0-2.21,4.79,30,30,0,0,0-1.31,5.11c-.1.66-.18,1.21-.22,1.58a2.46,2.46,0,0,1-.09.59,4,4,0,0,1,0-.6c0-.37.07-.92.16-1.6a25.86,25.86,0,0,1,1.25-5.15,26.51,26.51,0,0,1,2.28-4.8c.35-.57.66-1,.89-1.34A3.42,3.42,0,0,1,153.89,245.13Z" style="fill:#fafafa"></path><path d="M154.18,251.74a9.73,9.73,0,0,0-2.86,1.58,9.84,9.84,0,0,0-2,2.56,2.48,2.48,0,0,1,.38-.9,6.83,6.83,0,0,1,1.51-1.82,6.74,6.74,0,0,1,2-1.19A2.76,2.76,0,0,1,154.18,251.74Z" style="fill:#fafafa"></path><path d="M154.86,248.22c0,.06-1.13.63-2.35,1.62s-2,2-2.06,2a2.88,2.88,0,0,1,.48-.69,10.35,10.35,0,0,1,1.45-1.44,11.52,11.52,0,0,1,1.7-1.13A3,3,0,0,1,154.86,248.22Z" style="fill:#fafafa"></path><path d="M149.06,249.38a10.17,10.17,0,0,1,.68,4.71c-.07,0-.08-1.07-.27-2.36S149,249.4,149.06,249.38Z" style="fill:#fafafa"></path><path d="M150.91,245.54a3.29,3.29,0,0,1,.16.87,12.32,12.32,0,0,1,0,2.15,11.79,11.79,0,0,1-.35,2.12,3.53,3.53,0,0,1-.3.84c-.06,0,.32-1.32.44-3S150.84,245.54,150.91,245.54Z" style="fill:#fafafa"></path><path d="M149.23,249.86a2.21,2.21,0,0,0,.11-1.39c0-.16-.13-.34-.29-.34a.29.29,0,0,0-.27.24.91.91,0,0,0,.06.4,2.6,2.6,0,0,0-.52-.37c-.09,0-.21-.08-.27,0s0,.18,0,.25.26.35.39.52c-.12,0-.21-.1-.31-.16s-.26-.07-.3.05.06.17.13.23a3.31,3.31,0,0,0,1.17.51" style="fill:#fafafa"></path><path d="M154.51,248.3a.12.12,0,0,0-.18.08.18.18,0,0,0,.11.2.46.46,0,0,0,.23,0,3.56,3.56,0,0,0,1.38-.15c.09,0,.2-.09.22-.19s-.09-.2-.18-.26a1.17,1.17,0,0,0-1,0,1.73,1.73,0,0,0,.78-.41c.08-.08.16-.2.1-.29s-.18-.07-.28,0a2.3,2.3,0,0,0-.81.41,1,1,0,0,0,.42-.78c0-.09,0-.19-.09-.23a.2.2,0,0,0-.21,0,.5.5,0,0,0-.13.19,4.79,4.79,0,0,0-.49,1.57" style="fill:#fafafa"></path><path d="M153.92,245.15c-.1,0-.19.08-.17.18a.27.27,0,0,0,.23.18.68.68,0,0,0,.28-.07,4.22,4.22,0,0,0,1.43-.88.4.4,0,0,0,.14-.33c0-.14-.2-.19-.33-.2a1.36,1.36,0,0,0-1.13.49,2,2,0,0,0,.64-.86c.05-.13.07-.31,0-.38s-.24,0-.33.09a2.79,2.79,0,0,0-.67.89,1.31,1.31,0,0,0,.05-1.11c0-.1-.11-.2-.21-.21a.21.21,0,0,0-.22.13.71.71,0,0,0-.06.28,6.72,6.72,0,0,0,.28,2.05" style="fill:#fafafa"></path><path d="M126.05,262.2a2.32,2.32,0,0,1-.29.51c-.21.32-.5.79-.83,1.37a29.35,29.35,0,0,0-2.21,4.79,29,29,0,0,0-1.3,5.11c-.11.66-.18,1.21-.22,1.58a5.15,5.15,0,0,1-.09.59,3,3,0,0,1,0-.59c0-.38.07-.93.16-1.6a26.49,26.49,0,0,1,1.25-5.16A26.06,26.06,0,0,1,124.8,264c.36-.58.66-1,.89-1.34A3.22,3.22,0,0,1,126.05,262.2Z" style="fill:#fafafa"></path><path d="M126.34,268.81a8.33,8.33,0,0,0-4.88,4.14,2.73,2.73,0,0,1,.38-.9,6.83,6.83,0,0,1,1.51-1.82,6.74,6.74,0,0,1,2-1.19A2.76,2.76,0,0,1,126.34,268.81Z" style="fill:#fafafa"></path><path d="M127,265.3c0,.05-1.13.62-2.35,1.62s-2,2-2.06,2a2.88,2.88,0,0,1,.48-.69,10.35,10.35,0,0,1,1.45-1.44,10.62,10.62,0,0,1,1.7-1.12A2.3,2.3,0,0,1,127,265.3Z" style="fill:#fafafa"></path><path d="M121.22,266.45a10.17,10.17,0,0,1,.68,4.71c-.06,0-.08-1.06-.27-2.36S121.16,266.47,121.22,266.45Z" style="fill:#fafafa"></path><path d="M123.07,262.61a3.42,3.42,0,0,1,.16.87,10.62,10.62,0,0,1,0,2.15,11.79,11.79,0,0,1-.35,2.12,2.89,2.89,0,0,1-.3.84c-.06,0,.32-1.32.44-3S123,262.61,123.07,262.61Z" style="fill:#fafafa"></path><path d="M121.39,266.93a2.14,2.14,0,0,0,.11-1.39c0-.15-.13-.33-.29-.34a.28.28,0,0,0-.26.25.76.76,0,0,0,0,.39,2.35,2.35,0,0,0-.52-.37c-.09,0-.21-.08-.27,0s0,.18.05.25l.39.53a.68.68,0,0,1-.31-.17c-.1-.06-.26-.06-.3.05s.06.17.13.23a3.14,3.14,0,0,0,1.17.51" style="fill:#fafafa"></path><path d="M126.67,265.38a.11.11,0,0,0-.18.07.2.2,0,0,0,.11.2.46.46,0,0,0,.23.05,3.38,3.38,0,0,0,1.38-.15c.1,0,.2-.09.22-.19s-.08-.2-.18-.25a1.14,1.14,0,0,0-1,0,1.6,1.6,0,0,0,.77-.41c.09-.07.16-.19.1-.29s-.18-.07-.28,0a2.3,2.3,0,0,0-.81.41.94.94,0,0,0,.42-.78.24.24,0,0,0-.08-.23.2.2,0,0,0-.22,0,.4.4,0,0,0-.13.18,4.86,4.86,0,0,0-.49,1.57" style="fill:#fafafa"></path><path d="M126.08,262.22c-.09,0-.19.09-.16.19a.24.24,0,0,0,.22.17.55.55,0,0,0,.28-.07,4.13,4.13,0,0,0,1.43-.88.37.37,0,0,0,.14-.33.35.35,0,0,0-.33-.2,1.35,1.35,0,0,0-1.13.5,2,2,0,0,0,.64-.87c0-.13.07-.3,0-.38a.3.3,0,0,0-.33.09,2.79,2.79,0,0,0-.67.89,1.24,1.24,0,0,0,.05-1.11c0-.1-.11-.2-.21-.21a.21.21,0,0,0-.22.14.52.52,0,0,0,0,.28,6.23,6.23,0,0,0,.28,2.05" style="fill:#fafafa"></path><path d="M127.39,292.15l.59-.06c.38,0,.92-.07,1.59-.15a30.27,30.27,0,0,0,5.16-1.08,29.54,29.54,0,0,0,4.88-2c.6-.31,1.08-.57,1.41-.76a3.13,3.13,0,0,1,.52-.28,4.08,4.08,0,0,1-.48.34c-.32.22-.79.5-1.38.83a25.5,25.5,0,0,1-10.09,3.1c-.68.06-1.23.09-1.61.09A2.72,2.72,0,0,1,127.39,292.15Z" style="fill:#fafafa"></path><path d="M132.53,288a10.17,10.17,0,0,0,3,1.34,9.73,9.73,0,0,0,3.26.1,2.42,2.42,0,0,1-.95.23,6.81,6.81,0,0,1-2.36-.13,6.7,6.7,0,0,1-2.17-.92A3,3,0,0,1,132.53,288Z" style="fill:#fafafa"></path><path d="M129.3,289.53s1.17.54,2.7.92,2.81.42,2.81.48a2.43,2.43,0,0,1-.85,0,9.79,9.79,0,0,1-2-.31A10.34,10.34,0,0,1,130,290,2.41,2.41,0,0,1,129.3,289.53Z" style="fill:#fafafa"></path><path d="M133.69,293.5a7.59,7.59,0,0,1,1.49-1.88,7.16,7.16,0,0,1,1.89-1.47c0,.05-.82.69-1.74,1.62S133.74,293.54,133.69,293.5Z" style="fill:#fafafa"></path><path d="M129.5,294.31a3.06,3.06,0,0,1,.6-.66,12.94,12.94,0,0,1,1.71-1.3,11.28,11.28,0,0,1,1.92-1,2.84,2.84,0,0,1,.85-.26c0,.06-1.26.52-2.66,1.41S129.54,294.36,129.5,294.31Z" style="fill:#fafafa"></path><path d="M134,293.08a2.22,2.22,0,0,0-1.18.73c-.1.13-.19.31-.11.44a.29.29,0,0,0,.36.07.86.86,0,0,0,.29-.28,2.28,2.28,0,0,0,0,.64c0,.1.06.21.16.22s.15-.11.17-.2.13-.41.19-.62c.07.09,0,.23,0,.34s.11.26.22.22.11-.15.11-.24a3.09,3.09,0,0,0-.29-1.24" style="fill:#fafafa"></path><path d="M129.57,289.76c0,.08.1.14.17.11a.2.2,0,0,0,.1-.21.62.62,0,0,0-.1-.22,3.4,3.4,0,0,0-1-1,.27.27,0,0,0-.28-.06c-.1.05-.11.18-.09.29a1.16,1.16,0,0,0,.58.84,1.68,1.68,0,0,0-.79-.39c-.11,0-.25,0-.29.1s0,.19.13.25a2.24,2.24,0,0,0,.82.4,1,1,0,0,0-.88.13.24.24,0,0,0-.13.21.19.19,0,0,0,.15.16.41.41,0,0,0,.22,0,4.74,4.74,0,0,0,1.56-.54" style="fill:#fafafa"></path><path d="M127.39,292.12c0,.1.18.1.25,0a.23.23,0,0,0,0-.28.59.59,0,0,0-.22-.19,4.22,4.22,0,0,0-1.56-.62.4.4,0,0,0-.35.09.36.36,0,0,0,0,.38,1.33,1.33,0,0,0,1.07.61,2.15,2.15,0,0,0-1.07,0c-.14,0-.29.13-.28.27s.15.18.27.2a2.76,2.76,0,0,0,1.11,0,1.28,1.28,0,0,0-.92.62.3.3,0,0,0,0,.3.26.26,0,0,0,.25.1.85.85,0,0,0,.25-.13,6.37,6.37,0,0,0,1.48-1.45" style="fill:#fafafa"></path><path d="M158.22,314a2.26,2.26,0,0,1,.57.16c.36.12.88.28,1.53.46a28.58,28.58,0,0,0,10.46.95c.67-.06,1.22-.12,1.59-.18a4.09,4.09,0,0,1,.59-.06,2.27,2.27,0,0,1-.58.14c-.37.08-.91.17-1.59.25a26,26,0,0,1-5.3.06,25.63,25.63,0,0,1-5.21-1c-.65-.2-1.17-.38-1.52-.52Z" style="fill:#fafafa"></path><path d="M164.55,312.06a10,10,0,0,0,2.24,2.37,10.31,10.31,0,0,0,3,1.34,3.18,3.18,0,0,1-1-.15,6.92,6.92,0,0,1-2.14-1,6.84,6.84,0,0,1-1.66-1.67A2.88,2.88,0,0,1,164.55,312.06Z" style="fill:#fafafa"></path><path d="M161,312.28c.05,0,.88.93,2.15,1.87s2.44,1.45,2.42,1.51a3.23,3.23,0,0,1-.8-.3,10.13,10.13,0,0,1-1.74-1.05,9.8,9.8,0,0,1-1.52-1.36A2.89,2.89,0,0,1,161,312.28Z" style="fill:#fafafa"></path><path d="M163.54,317.61a7.33,7.33,0,0,1,2.09-1.18,7.66,7.66,0,0,1,2.3-.65c0,.06-1,.34-2.22.85S163.57,317.66,163.54,317.61Z" style="fill:#fafafa"></path><path d="M159.35,316.77a3.18,3.18,0,0,1,.81-.38,12.87,12.87,0,0,1,2.08-.56,12.1,12.1,0,0,1,2.14-.18,3.06,3.06,0,0,1,.89.08c0,.06-1.36,0-3,.31S159.38,316.83,159.35,316.77Z" style="fill:#fafafa"></path><path d="M164,317.32a2.17,2.17,0,0,0-1.37.24c-.15.07-.3.21-.27.37a.29.29,0,0,0,.31.19A.91.91,0,0,0,163,318a2.57,2.57,0,0,0-.23.6c0,.09,0,.22.07.26s.17,0,.23-.11l.41-.51c0,.11,0,.22-.08.34s0,.27.12.28.15-.1.18-.19a2.94,2.94,0,0,0,.21-1.25" style="fill:#fafafa"></path><path d="M161.14,312.59c0,.07,0,.17.12.16a.2.2,0,0,0,.17-.15.7.7,0,0,0,0-.25,3.49,3.49,0,0,0-.49-1.29.32.32,0,0,0-.24-.17c-.11,0-.17.13-.2.24a1.13,1.13,0,0,0,.23,1,1.68,1.68,0,0,0-.59-.65c-.09-.06-.23-.11-.3,0a.24.24,0,0,0,0,.28,2.18,2.18,0,0,0,.6.68,1,1,0,0,0-.86-.21.27.27,0,0,0-.2.14.21.21,0,0,0,.08.21.76.76,0,0,0,.21.08,4.82,4.82,0,0,0,1.65.08" style="fill:#fafafa"></path><path d="M158.23,314a.15.15,0,0,0,.22.11.24.24,0,0,0,.11-.26.53.53,0,0,0-.13-.26,4.06,4.06,0,0,0-1.21-1.16c-.11-.06-.24-.12-.35-.05a.34.34,0,0,0-.11.36,1.33,1.33,0,0,0,.76,1,2,2,0,0,0-1-.41c-.14,0-.31,0-.36.14s.07.22.17.29a2.76,2.76,0,0,0,1,.43,1.29,1.29,0,0,0-1.09.22c-.08.07-.17.16-.15.26a.2.2,0,0,0,.19.18.54.54,0,0,0,.28,0,6.26,6.26,0,0,0,1.92-.78" style="fill:#fafafa"></path><path d="M144.81,268.19s.05.65.14,1.69a24.07,24.07,0,0,0,.74,4,23,23,0,0,0,1.44,3.8c.45.94.78,1.49.75,1.51a1.93,1.93,0,0,1-.26-.37c-.16-.25-.38-.61-.62-1.07a19.51,19.51,0,0,1-2.19-7.84c0-.53,0-.95,0-1.24A2.77,2.77,0,0,1,144.81,268.19Z" style="fill:#fafafa"></path><path d="M147.92,272.23a8.76,8.76,0,0,0-1.07,2.27,8.86,8.86,0,0,0-.17,2.5,4.86,4.86,0,0,1,1.24-4.77Z" style="fill:#fafafa"></path><path d="M146.79,269.71c.06,0-.41.91-.73,2.07s-.39,2.15-.45,2.15a7,7,0,0,1,1.18-4.22Z" style="fill:#fafafa"></path><path d="M143.65,273a4.84,4.84,0,0,1,1.44,1.16,5.3,5.3,0,0,1,1.08,1.5s-.54-.62-1.23-1.35S143.62,273.06,143.65,273Z" style="fill:#fafafa"></path><path d="M143.11,269.77a6.11,6.11,0,0,1,1.49,1.81,6,6,0,0,1,.88,2.17c-.06,0-.41-1-1.06-2.06S143.07,269.82,143.11,269.77Z" style="fill:#fafafa"></path><path d="M144,273.24a1.64,1.64,0,0,0-.54-.92c-.1-.09-.23-.16-.34-.09a.23.23,0,0,0-.06.27.63.63,0,0,0,.21.22,1.61,1.61,0,0,0-.49,0c-.07,0-.17,0-.17.11s.08.12.14.14l.48.16a.45.45,0,0,1-.26,0c-.09,0-.2.08-.17.16s.11.09.18.09a2.42,2.42,0,0,0,1-.19" style="fill:#fafafa"></path><path d="M146.61,269.92c-.06,0-.11.07-.08.13a.15.15,0,0,0,.15.08.42.42,0,0,0,.18-.08,2.71,2.71,0,0,0,.8-.71.23.23,0,0,0,.05-.21c0-.08-.14-.09-.23-.08a.88.88,0,0,0-.65.43,1.28,1.28,0,0,0,.31-.6c0-.08,0-.19-.07-.22s-.15,0-.2.09a1.93,1.93,0,0,0-.32.62.75.75,0,0,0-.09-.68.2.2,0,0,0-.15-.1.15.15,0,0,0-.13.11.54.54,0,0,0,0,.18,3.84,3.84,0,0,0,.39,1.2" style="fill:#fafafa"></path><path d="M144.84,268.19a.11.11,0,0,0,0,.19.17.17,0,0,0,.21,0,.46.46,0,0,0,.15-.16,3.14,3.14,0,0,0,.51-1.19c0-.1,0-.21-.06-.27s-.2,0-.29,0a1,1,0,0,0-.5.81,1.46,1.46,0,0,0,0-.83c0-.1-.09-.22-.19-.22s-.15.11-.17.2a2.08,2.08,0,0,0,0,.86,1,1,0,0,0-.47-.72c-.07,0-.15-.08-.22,0a.16.16,0,0,0-.08.18.46.46,0,0,0,.09.2,4.66,4.66,0,0,0,1.09,1.17" style="fill:#fafafa"></path><path d="M134.28,269.28s-.42.5-1.07,1.32A22.45,22.45,0,0,0,131,274a23.32,23.32,0,0,0-1.6,3.73c-.32,1-.47,1.62-.5,1.61a1.69,1.69,0,0,1,.06-.45c.06-.29.16-.7.3-1.2a19.82,19.82,0,0,1,1.55-3.79,19.37,19.37,0,0,1,2.31-3.38c.34-.4.63-.71.84-.91A2,2,0,0,1,134.28,269.28Z" style="fill:#fafafa"></path><path d="M133.72,274.35a8.78,8.78,0,0,0-2.35.89,8.46,8.46,0,0,0-1.85,1.69,4.79,4.79,0,0,1,4.2-2.58Z" style="fill:#fafafa"></path><path d="M134.65,271.75c0,.06-.93.37-2,1s-1.76,1.29-1.81,1.24a5.56,5.56,0,0,1,1.71-1.42A5.45,5.45,0,0,1,134.65,271.75Z" style="fill:#fafafa"></path><path d="M130.1,272a7.1,7.1,0,0,1,0,3.66c-.06,0,.05-.82.05-1.83A17,17,0,0,1,130.1,272Z" style="fill:#fafafa"></path><path d="M132,269.24a5.89,5.89,0,0,1-.18,2.34,6.25,6.25,0,0,1-.86,2.17c-.06,0,.37-1,.66-2.22S131.89,269.24,132,269.24Z" style="fill:#fafafa"></path><path d="M134.38,271.77s-.13,0-.16,0a.18.18,0,0,0,.06.17.55.55,0,0,0,.18.06,3,3,0,0,0,1.07,0c.07,0,.16,0,.18-.12s0-.17-.1-.22a.91.91,0,0,0-.78-.14,1.23,1.23,0,0,0,.64-.22c.07,0,.15-.13.11-.21s-.13-.07-.21-.06a1.72,1.72,0,0,0-.66.22.77.77,0,0,0,.41-.55.19.19,0,0,0,0-.18.15.15,0,0,0-.17,0,.37.37,0,0,0-.12.13,3.67,3.67,0,0,0-.56,1.14" style="fill:#fafafa"></path><path d="M134.29,269.3c-.07,0-.15.05-.14.12a.18.18,0,0,0,.15.16.55.55,0,0,0,.22,0,3.23,3.23,0,0,0,1.19-.51c.08-.06.16-.14.14-.24s-.12-.16-.22-.18a1,1,0,0,0-.92.24,1.56,1.56,0,0,0,.59-.58c0-.09.09-.23,0-.3s-.18,0-.26,0a2.36,2.36,0,0,0-.62.6,1,1,0,0,0,.17-.84.27.27,0,0,0-.13-.19.18.18,0,0,0-.19.08.52.52,0,0,0-.07.21,5,5,0,0,0,0,1.59" style="fill:#fafafa"></path><path d="M146.88,224.77s-.42.5-1.07,1.31a22.61,22.61,0,0,0-2.23,3.39,22.94,22.94,0,0,0-1.6,3.73c-.32,1-.47,1.62-.5,1.61a1.69,1.69,0,0,1,.06-.45c.06-.29.16-.7.3-1.21a19.76,19.76,0,0,1,1.55-3.78A19,19,0,0,1,145.7,226c.34-.4.62-.71.84-.92S146.86,224.76,146.88,224.77Z" style="fill:#fafafa"></path><path d="M146.32,229.83a6.79,6.79,0,0,0-4.2,2.58,4.84,4.84,0,0,1,4.2-2.58Z" style="fill:#fafafa"></path><path d="M147.25,227.24c0,.06-.93.36-2,1s-1.76,1.28-1.81,1.23a6.94,6.94,0,0,1,3.78-2.21Z" style="fill:#fafafa"></path><path d="M142.69,227.44a4.84,4.84,0,0,1,.23,1.84,5.18,5.18,0,0,1-.26,1.83c-.06,0,0-.83.05-1.84S142.63,227.45,142.69,227.44Z" style="fill:#fafafa"></path><path d="M144.55,224.73a5.84,5.84,0,0,1-.18,2.33,6.15,6.15,0,0,1-.86,2.17c-.06,0,.37-1,.66-2.22S144.49,224.73,144.55,224.73Z" style="fill:#fafafa"></path><path d="M147,227.26s-.13,0-.16,0a.15.15,0,0,0,.06.16.56.56,0,0,0,.18.07,2.75,2.75,0,0,0,1.07,0c.07,0,.16,0,.18-.12s0-.16-.1-.21a.87.87,0,0,0-.78-.14,1.33,1.33,0,0,0,.64-.22c.07,0,.14-.13.11-.21s-.13-.08-.21-.07a1.91,1.91,0,0,0-.66.22.76.76,0,0,0,.41-.54.21.21,0,0,0,0-.19.15.15,0,0,0-.17,0,.34.34,0,0,0-.12.12,3.78,3.78,0,0,0-.56,1.14" style="fill:#fafafa"></path><path d="M146.89,224.79c-.07,0-.15,0-.14.12a.18.18,0,0,0,.15.16.55.55,0,0,0,.22,0,3.07,3.07,0,0,0,1.19-.51.25.25,0,0,0,.14-.23c0-.11-.12-.16-.22-.19a1,1,0,0,0-.92.25,1.59,1.59,0,0,0,.59-.59c0-.09.09-.22,0-.29s-.18,0-.26,0a2.21,2.21,0,0,0-.62.6,1,1,0,0,0,.17-.84c0-.08-.06-.17-.13-.19a.18.18,0,0,0-.19.08.48.48,0,0,0-.07.21,5,5,0,0,0,0,1.59" style="fill:#fafafa"></path><path d="M108,286.46s0,.64.14,1.68a23.18,23.18,0,0,0,.73,4,23.43,23.43,0,0,0,1.44,3.79c.46.94.79,1.5.76,1.51s-.11-.12-.27-.37-.37-.61-.62-1.07a20.21,20.21,0,0,1-1.51-3.81,19.51,19.51,0,0,1-.68-4c0-.52,0-.95,0-1.24A1.48,1.48,0,0,1,108,286.46Z" style="fill:#fafafa"></path><path d="M111.12,290.49a6.77,6.77,0,0,0-1.24,4.77,4.24,4.24,0,0,1,0-2.55A4.19,4.19,0,0,1,111.12,290.49Z" style="fill:#fafafa"></path><path d="M110,288c.05,0-.42.9-.74,2.06s-.39,2.15-.45,2.15a5.41,5.41,0,0,1,.25-2.2A5.14,5.14,0,0,1,110,288Z" style="fill:#fafafa"></path><path d="M106.85,291.28a5.09,5.09,0,0,1,1.43,1.17,4.88,4.88,0,0,1,1.08,1.49s-.54-.62-1.23-1.35S106.81,291.33,106.85,291.28Z" style="fill:#fafafa"></path><path d="M106.31,288a6,6,0,0,1,1.48,1.8,6.11,6.11,0,0,1,.88,2.17c-.06,0-.4-1-1.06-2.06S106.26,288.08,106.31,288Z" style="fill:#fafafa"></path><path d="M107.17,291.5a1.72,1.72,0,0,0-.55-.92c-.09-.08-.23-.16-.33-.09a.23.23,0,0,0-.06.28.55.55,0,0,0,.21.22,2,2,0,0,0-.49,0c-.08,0-.17,0-.17.12s.07.11.14.13l.48.16a.49.49,0,0,1-.27,0c-.09,0-.2.08-.17.17s.11.08.19.08a2.45,2.45,0,0,0,1-.19" style="fill:#fafafa"></path><path d="M109.8,288.18c-.06,0-.1.07-.08.13a.15.15,0,0,0,.16.08.38.38,0,0,0,.17-.08,2.83,2.83,0,0,0,.8-.7c0-.07.09-.15.05-.22a.22.22,0,0,0-.22-.08.9.9,0,0,0-.66.44,1.28,1.28,0,0,0,.31-.6c0-.09,0-.2-.07-.23s-.14,0-.19.1a1.76,1.76,0,0,0-.33.62.77.77,0,0,0-.08-.68.2.2,0,0,0-.16-.11.17.17,0,0,0-.12.11.37.37,0,0,0,0,.18,3.73,3.73,0,0,0,.39,1.21" style="fill:#fafafa"></path><path d="M108,286.46c-.07,0-.08.13,0,.19a.22.22,0,0,0,.22,0,.61.61,0,0,0,.15-.17,3.28,3.28,0,0,0,.5-1.19.28.28,0,0,0,0-.27.27.27,0,0,0-.3,0,1,1,0,0,0-.49.81,1.52,1.52,0,0,0,0-.82c0-.11-.09-.23-.2-.22s-.14.11-.16.2a2.07,2.07,0,0,0,0,.86,1,1,0,0,0-.46-.73.28.28,0,0,0-.23,0,.19.19,0,0,0-.08.19.52.52,0,0,0,.09.2,5,5,0,0,0,1.09,1.16" style="fill:#fafafa"></path><path d="M156.52,291.58s0,.64.14,1.68a23.33,23.33,0,0,0,.74,4,22.53,22.53,0,0,0,1.44,3.79c.45.94.78,1.49.75,1.51a1.67,1.67,0,0,1-.27-.37c-.16-.24-.37-.61-.62-1.07a19.95,19.95,0,0,1-2.19-7.84c0-.52,0-.95,0-1.24A1.79,1.79,0,0,1,156.52,291.58Z" style="fill:#fafafa"></path><path d="M159.63,295.61a8.4,8.4,0,0,0-1.07,2.27,8.87,8.87,0,0,0-.17,2.5,4.86,4.86,0,0,1,1.24-4.77Z" style="fill:#fafafa"></path><path d="M158.5,293.1c.06,0-.41.9-.74,2.06s-.38,2.15-.45,2.15a5.41,5.41,0,0,1,.25-2.2A5.49,5.49,0,0,1,158.5,293.1Z" style="fill:#fafafa"></path><path d="M155.36,296.4a5.09,5.09,0,0,1,1.43,1.17,5.26,5.26,0,0,1,1.09,1.49s-.54-.62-1.24-1.35S155.32,296.45,155.36,296.4Z" style="fill:#fafafa"></path><path d="M154.82,293.16a7.85,7.85,0,0,1,2.37,4c-.06,0-.41-1-1.07-2.06S154.77,293.2,154.82,293.16Z" style="fill:#fafafa"></path><path d="M155.68,296.62a1.77,1.77,0,0,0-.54-.92c-.1-.08-.24-.16-.34-.09a.22.22,0,0,0-.06.28.73.73,0,0,0,.21.22,2,2,0,0,0-.49,0c-.08,0-.17,0-.17.12s.08.11.14.13l.48.16a.45.45,0,0,1-.26,0c-.1,0-.2.08-.17.17s.11.08.18.08a2.42,2.42,0,0,0,1-.19" style="fill:#fafafa"></path><path d="M158.32,293.3c-.06,0-.11.07-.09.13a.15.15,0,0,0,.16.08.38.38,0,0,0,.17-.08,2.58,2.58,0,0,0,.8-.7c0-.07.09-.15,0-.22s-.14-.09-.22-.08a.9.9,0,0,0-.66.44,1.2,1.2,0,0,0,.31-.6c0-.09,0-.2-.06-.23s-.15,0-.2.1a1.6,1.6,0,0,0-.32.62.74.74,0,0,0-.09-.68A.19.19,0,0,0,158,292a.18.18,0,0,0-.13.11.37.37,0,0,0,0,.18,3.73,3.73,0,0,0,.39,1.21" style="fill:#fafafa"></path><path d="M156.55,291.58a.11.11,0,0,0,0,.19.22.22,0,0,0,.22,0,.49.49,0,0,0,.15-.17,3.14,3.14,0,0,0,.51-1.19.31.31,0,0,0-.06-.27.26.26,0,0,0-.29,0,1,1,0,0,0-.5.81,1.52,1.52,0,0,0,0-.82c0-.11-.09-.23-.19-.22s-.15.11-.17.2a2.07,2.07,0,0,0,0,.86,1,1,0,0,0-.46-.73.28.28,0,0,0-.23,0,.19.19,0,0,0-.08.19.93.93,0,0,0,.1.2,4.77,4.77,0,0,0,1.08,1.16" style="fill:#fafafa"></path><path d="M169.2,251.56s-.6.26-1.55.69a22.79,22.79,0,0,0-3.52,2,23.07,23.07,0,0,0-3.11,2.61c-.74.73-1.15,1.23-1.18,1.2a1.82,1.82,0,0,1,.26-.37c.18-.23.46-.55.81-.94a19.91,19.91,0,0,1,6.68-4.65c.49-.2.89-.34,1.17-.43A2,2,0,0,1,169.2,251.56Z" style="fill:#fafafa"></path><path d="M166.41,255.83a6.66,6.66,0,0,0-4.91.4,4.79,4.79,0,0,1,4.91-.4Z" style="fill:#fafafa"></path><path d="M168.41,253.93c0,.06-1-.09-2.19,0s-2.16.34-2.18.28a5.34,5.34,0,0,1,2.16-.49A5.44,5.44,0,0,1,168.41,253.93Z" style="fill:#fafafa"></path><path d="M164.26,252.05a4.9,4.9,0,0,1-.63,1.74,5,5,0,0,1-1.06,1.52s.41-.72.88-1.61S164.2,252,164.26,252.05Z" style="fill:#fafafa"></path><path d="M167.14,250.48a5.9,5.9,0,0,1-1.21,2,6.07,6.07,0,0,1-1.76,1.55c0-.05.78-.7,1.6-1.68S167.09,250.45,167.14,250.48Z" style="fill:#fafafa"></path><path d="M164.15,252.43a1.7,1.7,0,0,0,.7-.82c0-.11.07-.27,0-.34a.21.21,0,0,0-.28,0,.63.63,0,0,0-.14.27,2.27,2.27,0,0,0-.16-.46c0-.07-.1-.15-.17-.12s-.08.11-.08.18,0,.33,0,.5c-.07,0-.09-.16-.12-.24s-.14-.16-.21-.11,0,.14,0,.21a2.32,2.32,0,0,0,.5.84" style="fill:#fafafa"></path><path d="M168.16,253.83c0-.06-.11-.08-.15,0a.15.15,0,0,0,0,.18.37.37,0,0,0,.12.13,2.7,2.7,0,0,0,.93.53c.08,0,.17,0,.22,0a.21.21,0,0,0,0-.23.88.88,0,0,0-.63-.48,1.28,1.28,0,0,0,.67.09c.08,0,.19,0,.19-.13s-.08-.13-.15-.16a1.86,1.86,0,0,0-.7-.1.78.78,0,0,0,.62-.3c0-.06.07-.12,0-.18a.14.14,0,0,0-.14-.09.49.49,0,0,0-.17.06,3.81,3.81,0,0,0-1,.77" style="fill:#fafafa"></path><path d="M169.2,251.59c0-.07-.15,0-.18,0a.19.19,0,0,0,.06.21.49.49,0,0,0,.21.08,3,3,0,0,0,1.29.09c.09,0,.2,0,.23-.14s0-.21-.11-.27a1,1,0,0,0-.94-.2,1.49,1.49,0,0,0,.79-.26c.09,0,.19-.16.15-.25s-.15-.1-.25-.09a2.05,2.05,0,0,0-.82.25,1,1,0,0,0,.53-.67.26.26,0,0,0,0-.23.17.17,0,0,0-.2,0,.39.39,0,0,0-.16.15,4.9,4.9,0,0,0-.75,1.41" style="fill:#fafafa"></path><path d="M106.75,267.86s-.09.64-.22,1.67a23.8,23.8,0,0,0-.14,4.06,23.47,23.47,0,0,0,.59,4c.25,1,.45,1.63.41,1.64a3,3,0,0,1-.17-.42,12,12,0,0,1-.38-1.18,19.69,19.69,0,0,1-.65-4,20.12,20.12,0,0,1,.19-4.09c.09-.52.17-.93.24-1.22A2.21,2.21,0,0,1,106.75,267.86Z" style="fill:#fafafa"></path><path d="M108.92,272.47a6.72,6.72,0,0,0-2.23,4.39,4.87,4.87,0,0,1,2.23-4.39Z" style="fill:#fafafa"></path><path d="M108.36,269.77s-.6.79-1.16,1.86-.84,2-.9,2a6.78,6.78,0,0,1,2.06-3.86Z" style="fill:#fafafa"></path><path d="M104.58,272.32a4.84,4.84,0,0,1,1.16,1.45,5,5,0,0,1,.73,1.69c-.06,0-.39-.72-.91-1.59S104.54,272.36,104.58,272.32Z" style="fill:#fafafa"></path><path d="M104.75,269a5.86,5.86,0,0,1,1.07,2.08,6.15,6.15,0,0,1,.39,2.3c-.06,0-.19-1-.59-2.23S104.7,269.07,104.75,269Z" style="fill:#fafafa"></path><path d="M104.85,272.61a1.75,1.75,0,0,0-.33-1c-.08-.1-.2-.2-.31-.16a.22.22,0,0,0-.12.26.6.6,0,0,0,.16.26,2.08,2.08,0,0,0-.48-.11c-.08,0-.17,0-.19.08s0,.13.11.17l.43.25a.63.63,0,0,1-.27,0c-.09,0-.21,0-.2.12s.09.11.16.12a2.32,2.32,0,0,0,1,0" style="fill:#fafafa"></path><path d="M108.14,269.93c-.06,0-.12.05-.11.11a.15.15,0,0,0,.14.11.58.58,0,0,0,.18,0,2.51,2.51,0,0,0,.93-.52.21.21,0,0,0,.1-.2c0-.08-.12-.11-.2-.12a.9.9,0,0,0-.74.28,1.21,1.21,0,0,0,.43-.52c0-.08.06-.19,0-.23s-.15,0-.21.05a1.63,1.63,0,0,0-.45.53.78.78,0,0,0,.06-.68c0-.06-.07-.12-.13-.13a.16.16,0,0,0-.15.08.85.85,0,0,0,0,.17,3.59,3.59,0,0,0,.13,1.26" style="fill:#fafafa"></path><path d="M106.78,267.87c-.08,0-.11.11-.06.17a.18.18,0,0,0,.21.06.55.55,0,0,0,.18-.13,3.22,3.22,0,0,0,.75-1.05.31.31,0,0,0,0-.28.27.27,0,0,0-.29,0,1,1,0,0,0-.66.69,1.52,1.52,0,0,0,.2-.81c0-.1,0-.24-.15-.26s-.16.08-.2.17a2,2,0,0,0-.21.83,1,1,0,0,0-.3-.81.26.26,0,0,0-.21-.08c-.07,0-.11.09-.12.16a.54.54,0,0,0,0,.21,4.91,4.91,0,0,0,.81,1.38" style="fill:#fafafa"></path><path d="M173.86,298.14s.13.63.38,1.65a22.69,22.69,0,0,0,1.29,3.84,23.37,23.37,0,0,0,2,3.55c.59.86,1,1.37,1,1.39a2,2,0,0,1-.31-.33c-.2-.22-.46-.55-.77-1a20.39,20.39,0,0,1-2-3.56,19.89,19.89,0,0,1-1.25-3.89c-.1-.51-.17-.93-.2-1.22A1.34,1.34,0,0,1,173.86,298.14Z" style="fill:#fafafa"></path><path d="M177.51,301.69a8.43,8.43,0,0,0-.74,2.4,8.59,8.59,0,0,0,.19,2.5,4.16,4.16,0,0,1-.4-2.52A4.3,4.3,0,0,1,177.51,301.69Z" style="fill:#fafafa"></path><path d="M176,299.37c.06,0-.28.95-.43,2.15s-.08,2.18-.14,2.18a6.84,6.84,0,0,1,.57-4.33Z" style="fill:#fafafa"></path><path d="M173.39,303.08A4.87,4.87,0,0,1,175,304a5,5,0,0,1,1.28,1.33s-.62-.54-1.41-1.17S173.36,303.13,173.39,303.08Z" style="fill:#fafafa"></path><path d="M172.4,300a5.89,5.89,0,0,1,1.72,1.57,6.32,6.32,0,0,1,1.19,2c-.06,0-.54-.89-1.35-1.89S172.36,300,172.4,300Z" style="fill:#fafafa"></path><path d="M173.74,303.25a1.65,1.65,0,0,0-.67-.83c-.1-.07-.25-.12-.34,0a.21.21,0,0,0,0,.28.57.57,0,0,0,.24.19,2,2,0,0,0-.49.07c-.07,0-.16.07-.15.14s.09.1.16.12l.5.08a.46.46,0,0,1-.26.07c-.09,0-.19.11-.15.19a.21.21,0,0,0,.2.06,2.54,2.54,0,0,0,.92-.33" style="fill:#fafafa"></path><path d="M175.88,299.59a.09.09,0,0,0-.06.14.14.14,0,0,0,.16.06.37.37,0,0,0,.16-.1,2.55,2.55,0,0,0,.69-.81.22.22,0,0,0,0-.22.23.23,0,0,0-.24-.05.9.9,0,0,0-.59.52,1.3,1.3,0,0,0,.23-.63c0-.09,0-.2-.1-.22s-.14.06-.18.12a1.94,1.94,0,0,0-.24.66.76.76,0,0,0-.18-.66.19.19,0,0,0-.17-.08.16.16,0,0,0-.1.13.32.32,0,0,0,0,.17,3.67,3.67,0,0,0,.56,1.14" style="fill:#fafafa"></path><path d="M173.88,298.14c-.07,0-.06.14,0,.19a.2.2,0,0,0,.21,0,.5.5,0,0,0,.13-.19,3.18,3.18,0,0,0,.33-1.25c0-.09,0-.21-.1-.26a.26.26,0,0,0-.28.07,1,1,0,0,0-.38.87,1.54,1.54,0,0,0-.09-.82c0-.1-.13-.21-.23-.19s-.13.13-.13.22a2,2,0,0,0,.09.85,1,1,0,0,0-.56-.65.24.24,0,0,0-.23,0,.17.17,0,0,0-.05.19.55.55,0,0,0,.12.19,5,5,0,0,0,1.24,1" style="fill:#fafafa"></path><path d="M163.62,280.4s.16-.62.39-1.64a22.51,22.51,0,0,0,.35-8.07c-.14-1-.28-1.67-.25-1.67s.07.15.14.43.17.7.26,1.21a20.39,20.39,0,0,1,.24,4.09,19.4,19.4,0,0,1-.6,4,12.38,12.38,0,0,1-.36,1.19A2,2,0,0,1,163.62,280.4Z" style="fill:#fafafa"></path><path d="M161.92,275.6a8.67,8.67,0,0,0,1.72-1.82,9.07,9.07,0,0,0,.94-2.33,4.25,4.25,0,0,1-.76,2.44A4.34,4.34,0,0,1,161.92,275.6Z" style="fill:#fafafa"></path><path d="M162.21,278.34c-.05,0,.67-.73,1.34-1.73s1-1.93,1.09-1.9a5.28,5.28,0,0,1-.92,2A5.39,5.39,0,0,1,162.21,278.34Z" style="fill:#fafafa"></path><path d="M166.22,276.18a4.93,4.93,0,0,1-1-1.55,4.77,4.77,0,0,1-.56-1.77c.05,0,.32.77.75,1.68S166.27,276.15,166.22,276.18Z" style="fill:#fafafa"></path><path d="M165.72,279.43a7.74,7.74,0,0,1-1-4.51c.06,0,.08,1,.37,2.29S165.78,279.4,165.72,279.43Z" style="fill:#fafafa"></path><path d="M166,275.87a1.84,1.84,0,0,0,.23,1.05c.07.1.18.21.3.18a.22.22,0,0,0,.14-.24.57.57,0,0,0-.13-.27,1.84,1.84,0,0,0,.47.15c.07,0,.17,0,.19-.06s0-.13-.09-.18l-.41-.29a.44.44,0,0,1,.27.05c.08,0,.21,0,.21-.11s-.08-.11-.15-.13a2.3,2.3,0,0,0-1-.12" style="fill:#fafafa"></path><path d="M162.44,278.21a.1.1,0,0,0,.12-.1c0-.07-.06-.11-.12-.13a.62.62,0,0,0-.19,0,2.85,2.85,0,0,0-1,.42c-.06.05-.13.12-.11.19s.1.13.18.15a.91.91,0,0,0,.76-.21,1.35,1.35,0,0,0-.48.47c0,.08-.07.18,0,.24s.15,0,.21,0a1.67,1.67,0,0,0,.5-.49.81.81,0,0,0-.13.67.19.19,0,0,0,.12.15.14.14,0,0,0,.15-.07.38.38,0,0,0,.06-.16,3.87,3.87,0,0,0,0-1.27" style="fill:#fafafa"></path><path d="M163.59,280.39c.08,0,.12-.1.08-.17a.18.18,0,0,0-.2-.07.4.4,0,0,0-.2.11,3.17,3.17,0,0,0-.85,1,.29.29,0,0,0,0,.27.26.26,0,0,0,.29.07,1,1,0,0,0,.72-.61,1.59,1.59,0,0,0-.28.78c0,.1,0,.24.12.27s.17-.06.22-.14a2.33,2.33,0,0,0,.3-.81,1,1,0,0,0,.21.83.26.26,0,0,0,.2.11.2.2,0,0,0,.14-.15.56.56,0,0,0,0-.22,5,5,0,0,0-.67-1.45" style="fill:#fafafa"></path><path d="M134.19,242.59s-.59.26-1.54.69A22.65,22.65,0,0,0,126,247.9c-.74.73-1.15,1.23-1.18,1.21a1.7,1.7,0,0,1,.26-.38c.18-.23.46-.55.81-.94a20,20,0,0,1,3.1-2.67,19.53,19.53,0,0,1,3.58-2c.49-.21.88-.35,1.16-.44A2.32,2.32,0,0,1,134.19,242.59Z" style="fill:#fafafa"></path><path d="M131.41,246.86a8.51,8.51,0,0,0-2.5-.27,8.74,8.74,0,0,0-2.42.67,4.86,4.86,0,0,1,4.92-.4Z" style="fill:#fafafa"></path><path d="M133.41,245c0,.07-1-.09-2.19,0s-2.16.34-2.18.28a5.28,5.28,0,0,1,2.16-.49A5.44,5.44,0,0,1,133.41,245Z" style="fill:#fafafa"></path><path d="M129.26,243.09a5.22,5.22,0,0,1-.63,1.73,5,5,0,0,1-1.06,1.52s.41-.72.87-1.61S129.2,243.07,129.26,243.09Z" style="fill:#fafafa"></path><path d="M132.14,241.51a5.83,5.83,0,0,1-1.22,2,6,6,0,0,1-1.75,1.55c0-.05.78-.7,1.59-1.68S132.09,241.48,132.14,241.51Z" style="fill:#fafafa"></path><path d="M129.15,243.46a1.68,1.68,0,0,0,.69-.82c0-.11.07-.27,0-.34a.21.21,0,0,0-.28,0,.59.59,0,0,0-.14.27,2,2,0,0,0-.17-.46c0-.07-.09-.14-.16-.12s-.08.11-.08.18a4.17,4.17,0,0,0,0,.5c-.08,0-.09-.15-.12-.24s-.14-.16-.21-.1,0,.13,0,.2a2.19,2.19,0,0,0,.5.84" style="fill:#fafafa"></path><path d="M133.16,244.86a.1.1,0,0,0-.15,0,.15.15,0,0,0,0,.18.39.39,0,0,0,.12.14,2.85,2.85,0,0,0,.93.52.24.24,0,0,0,.22,0,.21.21,0,0,0,0-.24.85.85,0,0,0-.62-.48,1.39,1.39,0,0,0,.67.1c.08,0,.18-.06.19-.14s-.08-.13-.16-.16a1.78,1.78,0,0,0-.69-.1.73.73,0,0,0,.61-.3s.08-.12.05-.18a.12.12,0,0,0-.14-.08.48.48,0,0,0-.17.05,3.81,3.81,0,0,0-1,.77" style="fill:#fafafa"></path><path d="M134.2,242.62c0-.06-.15,0-.19,0a.2.2,0,0,0,.07.21.39.39,0,0,0,.21.08,3,3,0,0,0,1.29.09c.09,0,.2,0,.23-.14s0-.21-.12-.27a1,1,0,0,0-.93-.2,1.57,1.57,0,0,0,.79-.25c.09-.06.18-.17.14-.26s-.15-.1-.24-.09a2.12,2.12,0,0,0-.82.25,1,1,0,0,0,.53-.67.24.24,0,0,0,0-.23.16.16,0,0,0-.2,0,.43.43,0,0,0-.15.15,4.79,4.79,0,0,0-.75,1.41" style="fill:#fafafa"></path><path d="M159,229.22s.31.56.85,1.45a23.35,23.35,0,0,0,2.39,3.28,22.74,22.74,0,0,0,2.94,2.8c.81.65,1.35,1,1.33,1a2.21,2.21,0,0,1-.4-.22c-.25-.15-.6-.39-1-.7a19.59,19.59,0,0,1-3-2.78,20.22,20.22,0,0,1-2.36-3.34c-.25-.46-.44-.84-.56-1.11A1.46,1.46,0,0,1,159,229.22Z" style="fill:#fafafa"></path><path d="M163.55,231.51a8.85,8.85,0,0,0,0,2.51,8.64,8.64,0,0,0,.93,2.33,4.18,4.18,0,0,1-1.14-2.29A4.31,4.31,0,0,1,163.55,231.51Z" style="fill:#fafafa"></path><path d="M161.45,229.73c.06,0,0,1,.23,2.19s.58,2.1.52,2.13a5.6,5.6,0,0,1-.73-2.1A5.54,5.54,0,0,1,161.45,229.73Z" style="fill:#fafafa"></path><path d="M160,234.07a5.09,5.09,0,0,1,1.8.43,5.3,5.3,0,0,1,1.63.88c0,.06-.76-.33-1.7-.69S160,234.13,160,234.07Z" style="fill:#fafafa"></path><path d="M158.16,231.38a6.17,6.17,0,0,1,2.12,1,6.07,6.07,0,0,1,1.73,1.58s-.78-.7-1.85-1.4S158.13,231.44,158.16,231.38Z" style="fill:#fafafa"></path><path d="M160.43,234.13a1.71,1.71,0,0,0-.89-.6c-.12,0-.28,0-.34.07a.21.21,0,0,0,.07.27.54.54,0,0,0,.28.11,2,2,0,0,0-.44.22c-.07,0-.13.11-.11.18s.12.07.19.06l.5-.07c0,.08-.14.1-.22.15s-.15.15-.09.22.14,0,.21,0a2.48,2.48,0,0,0,.78-.59" style="fill:#fafafa"></path><path d="M161.37,230c-.06,0-.06.11,0,.15a.17.17,0,0,0,.18,0,.41.41,0,0,0,.12-.14,2.75,2.75,0,0,0,.42-1,.24.24,0,0,0,0-.22c-.06-.05-.16,0-.24,0a.87.87,0,0,0-.4.67,1.27,1.27,0,0,0,0-.67c0-.09-.07-.18-.16-.18s-.11.1-.13.17a1.66,1.66,0,0,0,0,.7.73.73,0,0,0-.37-.57.17.17,0,0,0-.18,0,.15.15,0,0,0-.07.15.35.35,0,0,0,.08.16,3.62,3.62,0,0,0,.87.92" style="fill:#fafafa"></path><path d="M159,229.21c-.06,0,0,.16.06.18a.18.18,0,0,0,.2-.09.39.39,0,0,0,.06-.21,3.16,3.16,0,0,0,0-1.3c0-.09-.08-.19-.17-.21s-.2.06-.26.14a1,1,0,0,0-.09.95,1.59,1.59,0,0,0-.34-.76c-.07-.08-.18-.16-.27-.11a.21.21,0,0,0-.07.25,2.15,2.15,0,0,0,.35.79,1,1,0,0,0-.73-.45.24.24,0,0,0-.22.06.18.18,0,0,0,0,.2.47.47,0,0,0,.17.14,5,5,0,0,0,1.48.58" style="fill:#fafafa"></path><path d="M114,234.19s.32.57.86,1.46a22.9,22.9,0,0,0,2.39,3.28,23.46,23.46,0,0,0,2.93,2.8c.82.65,1.35,1,1.34,1a2.21,2.21,0,0,1-.4-.22c-.25-.16-.61-.39-1-.71a19.92,19.92,0,0,1-3-2.77,20.24,20.24,0,0,1-2.36-3.35c-.25-.45-.44-.83-.56-1.1A2.2,2.2,0,0,1,114,234.19Z" style="fill:#fafafa"></path><path d="M118.54,236.49a8.85,8.85,0,0,0,0,2.51,9,9,0,0,0,.93,2.33,4.83,4.83,0,0,1-.95-4.84Z" style="fill:#fafafa"></path><path d="M116.44,234.71c.06,0,0,1,.23,2.18s.58,2.11.52,2.13a5.23,5.23,0,0,1-.73-2.09A5.31,5.31,0,0,1,116.44,234.71Z" style="fill:#fafafa"></path><path d="M115,239a5.25,5.25,0,0,1,1.8.44,4.74,4.74,0,0,1,1.62.88s-.75-.33-1.69-.69S115,239.1,115,239Z" style="fill:#fafafa"></path><path d="M113.14,236.35a7.82,7.82,0,0,1,3.85,2.56c0,.05-.78-.69-1.84-1.4S113.12,236.41,113.14,236.35Z" style="fill:#fafafa"></path><path d="M115.42,239.11a1.71,1.71,0,0,0-.89-.6c-.12,0-.28,0-.34.06a.22.22,0,0,0,.06.28.73.73,0,0,0,.29.11,1.85,1.85,0,0,0-.45.21c-.06,0-.13.11-.1.18s.12.07.19.06l.5-.06a.59.59,0,0,1-.23.14c-.07,0-.14.16-.08.22s.14,0,.2,0a2.41,2.41,0,0,0,.79-.59" style="fill:#fafafa"></path><path d="M116.36,235a.1.1,0,0,0,0,.16.17.17,0,0,0,.18,0,.53.53,0,0,0,.12-.14,2.8,2.8,0,0,0,.42-1c0-.07,0-.17,0-.21s-.17,0-.24,0a.9.9,0,0,0-.4.68,1.31,1.31,0,0,0,0-.68c0-.08-.07-.18-.16-.17s-.12.09-.13.17a1.66,1.66,0,0,0,0,.7.74.74,0,0,0-.37-.58.22.22,0,0,0-.19,0,.16.16,0,0,0-.06.16.46.46,0,0,0,.07.16,4,4,0,0,0,.88.92" style="fill:#fafafa"></path><path d="M114,234.18a.11.11,0,0,0,.06.18.18.18,0,0,0,.2-.08.55.55,0,0,0,.06-.22,3,3,0,0,0-.06-1.29.29.29,0,0,0-.16-.22.27.27,0,0,0-.26.15,1,1,0,0,0-.09,1,1.55,1.55,0,0,0-.34-.76c-.07-.08-.18-.16-.28-.11s-.08.16-.06.25a2.15,2.15,0,0,0,.35.79,1,1,0,0,0-.73-.46.22.22,0,0,0-.22.07.17.17,0,0,0,0,.2.47.47,0,0,0,.17.14,4.86,4.86,0,0,0,1.48.58" style="fill:#fafafa"></path><path d="M160.34,227.16l-.35,0-1,0a11,11,0,0,0-3.81,1c-3.17,1.41-6.93,5.31-9.38,11.26h0l-19.92,41.71-.06.13h-.15L92.93,282l.24-.17-4.24,10.65c-.44,1.12-.88,2.22-1.32,3.32l-.18-.35,46.7,10.75H134a12.52,12.52,0,0,0,5.65-2.81,9.64,9.64,0,0,0,1.89-2.42l1.56-2.64,5.72-10L158.1,272l6-10.52,1.59-2.77c.18-.3.31-.54.42-.71s.14-.24.15-.23l-.12.25-.39.72c-.35.66-.86,1.59-1.53,2.81l-5.86,10.59c-2.55,4.54-5.63,10.05-9.16,16.35l-5.68,10c-.52.88-1,1.76-1.56,2.66a10,10,0,0,1-2,2.51,12.87,12.87,0,0,1-5.86,2.94H134L87.31,295.9l-.29-.06.11-.29c.43-1.09.87-2.2,1.32-3.31l4.24-10.65.06-.16h.18l32.71-.55-.21.14c8.13-16.87,15.08-31.28,20.08-41.64h0c2.52-6,6.35-9.9,9.6-11.3a11,11,0,0,1,3.87-1h1.37Z" style="fill:#263238"></path><path d="M143.69,314.46c-4.75-5.69-11.87-10-19.27-9.56-5.52.3-12.61,2.92-17.2,5.53-13,7.37-10.59,24.16-10.59,24.16l14.14,88.92,26.17-3.38-2.86-85.48,14.52-11.08Z" style="fill:#263238"></path><path d="M149,323.34a3.2,3.2,0,0,1-.25.24l-.76.67-2.95,2.51-10.82,9.06.07-.16c.41,8.48.83,19.39,1.21,31.25.42,14,.8,26.59,1.08,35.78.14,4.55.26,8.24.34,10.84,0,1.25.06,2.24.08,3v.77a1,1,0,0,1,0,.26,1.11,1.11,0,0,1,0-.26c0-.2,0-.45-.06-.76,0-.72-.1-1.7-.17-2.95-.12-2.6-.29-6.29-.51-10.84-.38-9.15-.8-21.8-1.23-35.77-.38-11.87-.76-22.77-1.09-31.26v-.1l.08-.06,10.93-8.93,3-2.42.8-.63A1.31,1.31,0,0,1,149,323.34Z" style="fill:#455a64"></path><path d="M136.94,416a.9.9,0,0,1,0,.26l0,.79c0,.73,0,1.75,0,3.08v.08H137l-26.15,3.51-.21,0,0-.21c-1.67-10.47-3.69-23-5.85-36.54-2.9-18.42-5.52-35.08-7.43-47.18a39.13,39.13,0,0,1,0-14.44,20.36,20.36,0,0,1,1.07-3.8,6.85,6.85,0,0,1,.63-1.22,1.82,1.82,0,0,1-.14.32c-.09.21-.23.52-.39.94a22.17,22.17,0,0,0-1,3.79,40,40,0,0,0,.19,14.35c1.94,12.09,4.62,28.75,7.57,47.16,2.14,13.5,4.12,26.07,5.77,36.55l-.24-.18L136.93,420l-.08.09c0-1.33,0-2.35.05-3.08,0-.33,0-.59,0-.79A1.33,1.33,0,0,1,136.94,416Z" style="fill:#455a64"></path><path d="M129,321a6.91,6.91,0,0,1,1.28,1.75,22.23,22.23,0,0,1,2.15,4.76,22.59,22.59,0,0,1,1,5.14,7.07,7.07,0,0,1,0,2.16,53.23,53.23,0,0,0-1.46-7.14A52.44,52.44,0,0,0,129,321Z" style="fill:#455a64"></path><path d="M142.67,223.89c2-2,.82-3.13.08-5.1l-14.05-42c-6.1-13.76-24-5.58-24-5.58-8.45,3.1-9.65,12.6-7.69,19.09,2.16,7.2,5.1,15.91,7.88,20.85,5.59,9.94,14.19,8.28,14.19,8.28l3.55,9.58a5.58,5.58,0,0,0,8.34,2.7Z" style="fill:#ffbe9d"></path><path d="M102,197.37a1.45,1.45,0,0,0,1.81.88,1.38,1.38,0,0,0,.94-1.74,1.43,1.43,0,0,0-1.81-.88A1.38,1.38,0,0,0,102,197.37Z" style="fill:#263238"></path><path d="M100.7,195.55c.23.11,1-1,2.44-1.56s2.79-.21,2.88-.45-.24-.36-.83-.52a3.93,3.93,0,0,0-2.39.13,3.8,3.8,0,0,0-1.86,1.46C100.62,195.12,100.59,195.5,100.7,195.55Z" style="fill:#263238"></path><path d="M115.6,193a1.45,1.45,0,0,0,1.81.89,1.39,1.39,0,0,0,1-1.74,1.46,1.46,0,0,0-1.82-.89A1.38,1.38,0,0,0,115.6,193Z" style="fill:#263238"></path><path d="M115,190.23c.23.12,1-1,2.44-1.56s2.79-.2,2.89-.44-.24-.37-.84-.53a3.93,3.93,0,0,0-2.39.13,3.81,3.81,0,0,0-1.86,1.47C115,189.81,114.92,190.18,115,190.23Z" style="fill:#263238"></path><path d="M114.11,203a9.87,9.87,0,0,0-2.53.45c-.38.1-.76.16-.92-.07a2,2,0,0,1-.16-1.2c0-1,0-2.11,0-3.24,0-4.6-.09-8.33-.28-8.33s-.36,3.73-.39,8.33v3.24a2.32,2.32,0,0,0,.35,1.54,1,1,0,0,0,.81.31,2.81,2.81,0,0,0,.67-.14A9.86,9.86,0,0,0,114.11,203Z" style="fill:#263238"></path><path d="M119.06,219.46a28.68,28.68,0,0,0,12.74-9s-.74,8.53-11.68,11.46Z" style="fill:#eb996e"></path><path d="M116.59,207.81a1.4,1.4,0,0,1-.48-1.46,1.39,1.39,0,0,1,1.19-1,1.23,1.23,0,0,1,.34-1.46,1.73,1.73,0,0,1,1.53-.27,2.37,2.37,0,0,1,1.7,2.33,2.61,2.61,0,0,1-1.79,2.32,2.91,2.91,0,0,1-2.87-.75" style="fill:#eb996e"></path><path d="M118.77,202.46c-.24.07.34,1.65-.59,3.28s-2.69,2.08-2.62,2.3.49.17,1.21-.08a4.16,4.16,0,0,0,2.22-1.83,3.62,3.62,0,0,0,.39-2.71C119.2,202.73,118.88,202.41,118.77,202.46Z" style="fill:#263238"></path><path d="M112.81,188.15c.29.35,1.68-.38,3.46-.81s3.34-.48,3.44-.92c0-.2-.34-.49-1-.66a5.84,5.84,0,0,0-2.78.05,6,6,0,0,0-2.48,1.26C112.88,187.56,112.68,188,112.81,188.15Z" style="fill:#263238"></path><path d="M98.7,190.94c.38.24,1.25-.48,2.45-.94s2.32-.61,2.42-1c0-.21-.24-.48-.8-.63a3.66,3.66,0,0,0-2.21.2,3.62,3.62,0,0,0-1.72,1.4C98.54,190.43,98.52,190.82,98.7,190.94Z" style="fill:#263238"></path><path d="M121.24,193.94a.33.33,0,0,1-.33.33.34.34,0,0,1,0-.67A.33.33,0,0,1,121.24,193.94Z" style="fill:#263238"></path><path d="M149.4,220.41l6.87,1.54-.35-2.47A29.68,29.68,0,0,0,146.58,201c-8.64-7.71,3.07-10.69-4.44-20.87a32.11,32.11,0,0,0-8.78-8.61,13.64,13.64,0,0,1-1.77-1.33,53.62,53.62,0,0,0-4.33-3.94,7.46,7.46,0,0,0-4.09-1.49h0a11.48,11.48,0,0,0-2.74-.77c-4.21-.64-8.39,1.06-12.31,2.71s-14,1.22-10.77,11.65h0a3.46,3.46,0,0,1,5.33-1.47,6.24,6.24,0,0,1,2.49,4.07c.46,2.43,1.17,5.13,4.12,5.75a5.17,5.17,0,0,0,2.18,0c2.46-.55,4.43-4.27,9.12-3.38,0,0,4.57,1.41,4.84,4.28s-1.33,8.21,1.49,10.75,3.28,2.47,3.21,4.66c0,.5,0,.85,0,1.1-.36,3.47.31,20.31,14.16,14.93l5.16,1.4" style="fill:#263238"></path><path d="M143.48,220.41s.06.08.13.26a2.57,2.57,0,0,1,.18.81,2.53,2.53,0,0,1-.22,1.32,4.39,4.39,0,0,1-1.06,1.41A31,31,0,0,1,139,227l-4.55,3a23.8,23.8,0,0,1-2.45,1.48,15.92,15.92,0,0,1-2.49.94,15.57,15.57,0,0,1-2.37.48,3.42,3.42,0,0,1-2.09-.55A6,6,0,0,1,123,230.1a2.54,2.54,0,0,1-.37-1.06s.16.37.54,1a6.37,6.37,0,0,0,2.08,2,3.09,3.09,0,0,0,1.86.44,15,15,0,0,0,2.28-.51,16.41,16.41,0,0,0,2.41-.94,24.91,24.91,0,0,0,2.38-1.45l4.58-3a34.8,34.8,0,0,0,3.52-2.67,3.1,3.1,0,0,0,1.33-2.44C143.59,220.8,143.43,220.42,143.48,220.41Z" style="fill:#263238"></path></g><g id="freepik--Plant--inject-2"><path d="M424.21,384.46c1-3.61,3.26-7.09,6.71-8.57s7.73-.67,11.4.66,7.27,3.12,11.16,3.36,8.29-1.61,9.46-5.33c1.09-3.5-1-7.23-3.66-9.78a23.08,23.08,0,0,0-37.81,9.08" style="fill:#407BFF"></path><g style="opacity:0.5"><path d="M424.21,384.46c1-3.61,3.26-7.09,6.71-8.57s7.73-.67,11.4.66,7.27,3.12,11.16,3.36,8.29-1.61,9.46-5.33c1.09-3.5-1-7.23-3.66-9.78a23.08,23.08,0,0,0-37.81,9.08"></path></g><path d="M393.35,400.1c-5.71-5.43-5.43-14.87-2.58-22.22s9.07-13,16-16.71A50.74,50.74,0,0,1,451,359.74a21,21,0,0,0-17,10c-3.13,5.2-3.83,11.51-6.42,17a26.74,26.74,0,0,1-34.27,13.4" style="fill:#407BFF"></path><path d="M390.61,367.49c-6.33-7.46-7.17-19.45-6.24-29.19s3.19-19.55,1.65-29.21c-.91-5.73-3.13-11.2-3.88-16.94s.31-12.25,4.77-16c5.12-4.26,13.18-3.25,18.51.75s8.41,10.3,10.66,16.57c5,13.77,6.78,29.05,2.71,43.11s-13.62,26.64-27.63,30.88" style="fill:#407BFF"></path><path d="M387.57,428.76a4.39,4.39,0,0,1,0-.86c0-.57,0-1.4,0-2.47.08-2.14.29-5.24.77-9a119,119,0,0,1,2.43-13.25,61,61,0,0,1,6-15.33A64,64,0,0,1,417.06,366c1.58-1.1,3.11-1.92,4.43-2.69S424,362,425,361.55l2.27-.95a6.58,6.58,0,0,1,.81-.31,4.32,4.32,0,0,1-.77.4l-2.22,1.05c-.95.49-2.11,1.09-3.44,1.82s-2.8,1.64-4.36,2.74a65.15,65.15,0,0,0-20,21.77c-5.82,10.17-7.41,20.87-8.56,28.36-.53,3.79-.79,6.88-.93,9q-.09,1.55-.15,2.46A4.55,4.55,0,0,1,387.57,428.76Z" style="fill:#263238"></path><path d="M333,338c-11.71,7.06-11.67,13.49-9.71,19.55s9.13,10.28,15.09,8c3.36-1.28,5.8-4.21,7.89-7.15s4-6.09,7-8.2,7.16-2.92,10.09-.82" style="fill:#407BFF"></path><g style="opacity:0.5"><path d="M333,338c-11.71,7.06-11.67,13.49-9.71,19.55s9.13,10.28,15.09,8c3.36-1.28,5.8-4.21,7.89-7.15s4-6.09,7-8.2,7.16-2.92,10.09-.82"></path></g><path d="M324.25,345.78c3.06-4.23,10.62-5.45,15.39-3.34s8.27,6.29,11.4,10.47,6.18,8.58,10.51,11.49,10.39,4,14.72,1a12.63,12.63,0,0,0,5-8.65,28.85,28.85,0,0,0-.68-10.21c-1-4.91-2.72-10-6.65-13.15-4.38-3.48-10.45-3.64-16-3.46-6.41.21-12.92.69-18.93,2.91s-12.16,7-14.71,12.91" style="fill:#407BFF"></path><path d="M377.84,419.38a.79.79,0,0,1,0-.25c0-.2,0-.45,0-.76,0-.7-.06-1.67-.1-2.9-.07-2.57-.18-6.21-.31-10.69s-.32-9.87-.65-15.83-.77-12.5-1.68-19.31a62.63,62.63,0,0,0-1.93-9.81,51.47,51.47,0,0,0-3.59-8.58,49.41,49.41,0,0,0-4.53-7.1,45,45,0,0,0-4.94-5.43,36.4,36.4,0,0,0-8.76-6c-.57-.26-1.07-.52-1.52-.7l-1.14-.44-.7-.29c-.16-.06-.24-.1-.23-.11l.25.06.72.24,1.16.4c.46.16,1,.41,1.55.66a34.89,34.89,0,0,1,8.92,5.88,46.24,46.24,0,0,1,5,5.43,49.55,49.55,0,0,1,4.6,7.14,50.16,50.16,0,0,1,3.65,8.66,61,61,0,0,1,2,9.89c.91,6.84,1.34,13.4,1.64,19.36s.45,11.33.54,15.84.13,8.17.14,10.69c0,1.23,0,2.2,0,2.91,0,.31,0,.56,0,.76A.67.67,0,0,1,377.84,419.38Z" style="fill:#263238"></path><path d="M382.05,424.67a34.38,34.38,0,0,1-1.28-5,52.48,52.48,0,0,1-.53-14.12A93.45,93.45,0,0,1,384.7,385c2.4-7.53,5.66-15.58,8.44-24.24A108.44,108.44,0,0,0,396.5,348a111.12,111.12,0,0,0,1.66-12.24,178.26,178.26,0,0,0,.38-20.92c-.21-6-.52-10.78-.72-14.11-.1-1.64-.17-2.93-.23-3.84,0-.41,0-.74,0-1a1.48,1.48,0,0,1,0-.34,1.38,1.38,0,0,1,.05.34c0,.25.06.58.1,1,.08.91.18,2.2.32,3.83.26,3.33.64,8.15.89,14.12a170.77,170.77,0,0,1-.27,21,112.18,112.18,0,0,1-1.63,12.3A110.87,110.87,0,0,1,393.64,361c-2.79,8.68-6.07,16.73-8.49,24.23a95.59,95.59,0,0,0-4.55,20.37,55,55,0,0,0,.37,14.05c.29,1.64.55,2.91.78,3.76l.24,1A1.42,1.42,0,0,1,382.05,424.67Z" style="fill:#263238"></path><polygon points="411.07 429.96 356.12 429.96 354.86 419.38 411.07 419.38 411.07 429.96" style="fill:#455a64"></polygon><polygon points="362.01 428.76 368.88 460.49 398.74 460.49 405.17 428.76 362.01 428.76" style="fill:#455a64"></polygon><path d="M411.07,430c0,.15-12.08.23-27,.19s-27-.2-27-.34,12.08-.23,27-.19S411.07,429.82,411.07,430Z" style="fill:#455a64"></path><path d="M401.64,445.62a22.9,22.9,0,0,0-4.84-2.77,17,17,0,0,0-5.89-1.18,20.5,20.5,0,0,0-7.23,1.33c-2.51.84-4.85,1.83-7.13,2.37a17,17,0,0,1-6.15.19,12.78,12.78,0,0,1-4-1.26,8.26,8.26,0,0,1-.95-.6c-.21-.16-.31-.25-.3-.26s.47.27,1.34.68a13.84,13.84,0,0,0,3.92,1.07,17.37,17.37,0,0,0,6-.29c2.2-.55,4.54-1.55,7.06-2.4a20.38,20.38,0,0,1,7.42-1.31,16.72,16.72,0,0,1,6,1.32,15.33,15.33,0,0,1,3.58,2.09,8.92,8.92,0,0,1,.85.73C401.56,445.51,401.65,445.61,401.64,445.62Z" style="fill:#263238"></path><path d="M401.22,447.74a23.82,23.82,0,0,0-4.65-2.73,15.56,15.56,0,0,0-5.67-1.17,20.23,20.23,0,0,0-7,1.26c-2.42.8-4.69,1.74-6.86,2.33a17.61,17.61,0,0,1-5.92.66,10,10,0,0,1-3.88-1,6.64,6.64,0,0,1-.92-.58c-.2-.15-.3-.24-.29-.25s.46.26,1.3.65a10.71,10.71,0,0,0,3.81.85,17.84,17.84,0,0,0,5.77-.76c2.12-.6,4.38-1.54,6.82-2.36a20.36,20.36,0,0,1,7.18-1.25,15.61,15.61,0,0,1,5.81,1.31,15.94,15.94,0,0,1,3.43,2.08,9.1,9.1,0,0,1,.82.72C401.14,447.63,401.23,447.73,401.22,447.74Z" style="fill:#fff"></path><path d="M402.18,443.52a26.24,26.24,0,0,0-5-2.93,18.34,18.34,0,0,0-6-1.45,19.49,19.49,0,0,0-7.47,1.32,67.58,67.58,0,0,1-7.37,2.4,18.82,18.82,0,0,1-6.36,0,14.58,14.58,0,0,1-4.08-1.3,7.23,7.23,0,0,1-1-.61c-.22-.16-.32-.25-.31-.27s.48.29,1.39.7a15.68,15.68,0,0,0,4.05,1.11,19,19,0,0,0,6.21-.12,74.15,74.15,0,0,0,7.3-2.43,19.38,19.38,0,0,1,7.66-1.3,18,18,0,0,1,6.15,1.59,17.66,17.66,0,0,1,3.67,2.21,11.05,11.05,0,0,1,.88.76C402.1,443.4,402.19,443.51,402.18,443.52Z" style="fill:#fff"></path><path d="M411.55,430c0,.14-12.36.26-27.6.26s-27.61-.12-27.61-.26,12.36-.26,27.61-.26S411.55,429.86,411.55,430Z" style="fill:#263238"></path></g></svg>