<svg height="480pt" viewBox="-63 0 479 480" width="480pt" xmlns="http://www.w3.org/2000/svg"><path d="m344.5 432v32c0 4.417969-3.582031 8-8 8h-240c-4.417969 0-8-3.582031-8-8v-32c0-4.417969 3.582031-8 8-8h240c4.417969 0 8 3.582031 8 8zm0 0" fill="rgba(42, 175, 48, 0.15)"/><path d="m280.5 264v80c0 17.671875-14.328125 32-32 32h-160c-17.671875 0-32-14.328125-32-32v-24h24c13.253906 0 24-10.746094 24-24s-10.746094-24-24-24c13.253906 0 24-10.746094 24-24s-10.746094-24-24-24c13.253906 0 24-10.746094 24-24s-10.746094-24-24-24h-24v-136c0-17.671875 14.328125-32 32-32h24v16c.027344 8.824219 7.175781 15.972656 16 16h80c8.824219-.027344 15.972656-7.175781 16-16v-16h24c17.671875 0 32 14.328125 32 32v136h-16c-17.671875 0-32 14.328125-32 32s14.328125 32 32 32h16zm-64-96c0-8.835938-7.164062-16-16-16s-16 7.164062-16 16 7.164062 16 16 16c8.824219-.027344 15.972656-7.175781 16-16zm-64-64c0-8.835938-7.164062-16-16-16s-16 7.164062-16 16 7.164062 16 16 16c8.824219-.027344 15.972656-7.175781 16-16zm0 0" fill="rgba(42, 175, 48, 0.15)"/><g fill="#2aaf30"><path d="m336.5 416h-6.558594l6.445313-38.679688c.074219-.4375.113281-.878906.113281-1.320312v-168c-.027344-22.082031-17.917969-39.972656-40-40h-8v-128c-.027344-22.082031-17.917969-39.9726562-40-40h-160c-22.082031.0273438-39.972656 17.917969-40 40v84.449219c-4.84375-2.878907-10.367188-4.417969-16-4.449219-12.734375-.042969-24.273438 7.492188-29.351562 19.171875-5.078126 11.675781-2.722657 25.253906 5.992187 34.539063-5.449219 4.511718-8.617187 11.214843-8.640625 18.289062v16c.019531 5.921875 2.246094 11.625 6.238281 16-3.992187 4.375-6.21875 10.078125-6.238281 16v16c.019531 5.921875 2.246094 11.625 6.238281 16-3.992187 4.375-6.21875 10.078125-6.238281 16v16c0 13.253906 10.746094 24 24 24h24v16c.027344 22.082031 17.917969 39.972656 40 40h10.238281l10.664063 32h-12.902344c-8.835938 0-16 7.164062-16 16v32c0 8.835938 7.164062 16 16 16h240c8.835938 0 16-7.164062 16-16v-32c0-8.835938-7.164062-16-16-16zm-216-400h96v8c0 4.417969-3.582031 8-8 8h-80c-4.417969 0-8-3.582031-8-8zm-40 200h-56c-4.417969 0-8-3.582031-8-8v-16c0-4.417969 3.582031-8 8-8h56c8.835938 0 16 7.164062 16 16s-7.164062 16-16 16zm16 32c0 8.835938-7.164062 16-16 16h-56c-4.417969 0-8-3.582031-8-8v-16c0-4.417969 3.582031-8 8-8h56c8.835938 0 16 7.164062 16 16zm-64-112c8.835938 0 16 7.164062 16 16s-7.164062 16-16 16-16-7.164062-16-16 7.164062-16 16-16zm-16 168v-16c0-4.417969 3.582031-8 8-8h56c8.835938 0 16 7.164062 16 16s-7.164062 16-16 16h-56c-4.417969 0-8-3.582031-8-8zm48 40v-16h16c13.34375.058594 25.3125-8.203125 29.984375-20.703125 4.675781-12.496094 1.066406-26.585937-9.039063-35.296875 7.015626-6 11.054688-14.769531 11.054688-24s-4.039062-18-11.054688-24c10.105469-8.710938 13.714844-22.800781 9.039063-35.296875-4.671875-12.5-16.640625-20.761719-29.984375-20.703125h-16v-128c0-13.253906 10.746094-24 24-24h16v8c0 13.253906 10.746094 24 24 24h80c13.253906 0 24-10.746094 24-24v-8h16c13.253906 0 24 10.746094 24 24v128h-8c-22.089844 0-40 17.910156-40 40s17.910156 40 40 40h8v96c0 13.253906-10.746094 24-24 24h-160c-13.253906 0-24-10.746094-24-24zm51.105469 40h132.894531c22.082031-.027344 39.972656-17.917969 40-40v-104c0-4.417969-3.582031-8-8-8h-16c-13.253906 0-24-10.746094-24-24s10.746094-24 24-24h32c13.253906 0 24 10.746094 24 24v167.335938l-6.777344 40.664062h-187.453125zm-19.105469 80v-32h240v32zm0 0"/><path d="m122.847656 170.339844 80-80 11.3125 11.3125-80 80zm0 0"/><path d="m176.5 168c0 13.253906 10.746094 24 24 24s24-10.746094 24-24-10.746094-24-24-24-24 10.746094-24 24zm32 0c0 4.417969-3.582031 8-8 8s-8-3.582031-8-8 3.582031-8 8-8 8 3.582031 8 8zm0 0"/><path d="m136.5 128c13.253906 0 24-10.746094 24-24s-10.746094-24-24-24-24 10.746094-24 24 10.746094 24 24 24zm0-32c4.417969 0 8 3.582031 8 8s-3.582031 8-8 8-8-3.582031-8-8 3.582031-8 8-8zm0 0"/><path d="m160.5 272h16v16h-16zm0 0"/><path d="m192.5 272h16v16h-16zm0 0"/><path d="m128.5 272h16v16h-16zm0 0"/></g></svg>