<svg width="1140" height="575" viewBox="0 0 301.62 152.13" xmlns="http://www.w3.org/2000/svg"><g transform="translate(-1.231 30.101)" fill-opacity=".043"><circle transform="scale(-1 1)" cx="-83.616" cy="39.247" r="3.099" style="paint-order:normal"/><circle cx="113.97" cy="9.904" r="1.937" fill-opacity=".051" style="paint-order:normal"/><circle cx="126.22" cy="14.088" r="1.937" style="paint-order:normal"/><circle cx="49.098" cy="29.302" r="3.099" style="paint-order:normal"/><circle transform="scale(-1 1)" cx="-27.826" cy="19.156" r="1.937" fill="#040404" style="paint-order:normal"/><path d="M146.06 66.195a11.77 11.77 0 0 1 11.77 11.77 11.77 11.77 0 0 1-11.77 11.77 11.77 11.77 0 0 1-11.77-11.77 11.77 11.77 0 0 1 11.77-11.77zm0 3.724a8.047 8.047 0 0 0-8.047 8.046 8.047 8.047 0 0 0 8.047 8.047 8.047 8.047 0 0 0 8.047-8.047 8.047 8.047 0 0 0-8.047-8.046z" fill="#a7a7cf" fill-opacity=".086" style="paint-order:normal"/><path d="M63.142 18.29a5.944 5.944 0 0 1 5.944 5.944 5.944 5.944 0 0 1-5.944 5.944 5.944 5.944 0 0 1-5.944-5.944 5.944 5.944 0 0 1 5.944-5.944zm0 3.032a2.912 2.912 0 0 0-2.912 2.912 2.912 2.912 0 0 0 2.912 2.912 2.912 2.912 0 0 0 2.912-2.912 2.912 2.912 0 0 0-2.912-2.912z" fill-opacity=".067" style="paint-order:normal"/><path d="M132.26 37.42a4.007 4.007 0 0 0-4.007 4.007 4.007 4.007 0 0 0 4.007 4.007 4.007 4.007 0 0 0 4.007-4.007 4.007 4.007 0 0 0-4.007-4.007zm0 2.044a1.963 1.963 0 0 1 1.963 1.963 1.963 1.963 0 0 1-1.963 1.963 1.963 1.963 0 0 1-1.963-1.963 1.963 1.963 0 0 1 1.963-1.963z" fill="#a7a7cf" fill-opacity=".086" style="paint-order:normal"/></g><g transform="translate(-104.64 -2.074) scale(1.655)" fill="#61ace8" opacity=".153"><path d="M107.1 29.004v.924h-.924v.433h.924v.924h.433v-.924h.924v-.433h-.924v-.924z" style="paint-order:normal"/><rect transform="rotate(-58.266)" x="51.279" y="129.93" width="2.119" height="2.119" rx="0" ry="0" style="paint-order:normal"/><path transform="translate(65.206 -12.719) scale(1.1253)" d="M9.002 30.177c.003 1.137-.849 1.67-1.673 1.673.84-.003 1.676.826 1.673 1.672.003-.847.777-1.675 1.672-1.672-.895-.003-1.67-.53-1.672-1.673zm1.708 2.732c0 .41-.307.604-.605.605.304-.001.606.298.605.604a.63.63 0 0 1 .605-.604c-.324-.001-.604-.192-.605-.605z" style="paint-order:normal"/></g><g opacity=".677"><circle transform="scale(-1 1)" cx="-43.744" cy="32.591" r="1.519" fill="#c96848" fill-opacity=".819" style="paint-order:normal"/><path d="M108.8 44.404a5.944 5.944 0 0 0-5.944 5.944 5.944 5.944 0 0 0 5.944 5.944 5.944 5.944 0 0 0 5.944-5.944 5.944 5.944 0 0 0-5.944-5.944zm0 3.032a2.912 2.912 0 0 1 2.912 2.912 2.912 2.912 0 0 1-2.912 2.912 2.912 2.912 0 0 1-2.912-2.912 2.912 2.912 0 0 1 2.912-2.912z" fill="#975aff" fill-opacity=".819" style="paint-order:normal"/><rect transform="rotate(-16.636)" x="68.344" y="49.831" width="3.961" height="3.961" rx="0" ry="0" fill="#3aa891" style="paint-order:normal"/><path d="M99.776 107.1c.367 2.085-1.027 3.334-2.538 3.602 1.54-.273 3.337.983 3.6 2.536-.262-1.555.894-3.32 2.538-3.6-1.644.28-3.233-.441-3.6-2.538zm4.002 4.47c.13.753-.371 1.207-.918 1.303.558-.098 1.207.355 1.302.916a1.173 1.173 0 0 1 .919-1.3c-.595.1-1.17-.16-1.303-.918z" fill="#3a6f91" style="paint-order:normal"/><path d="m20.92 121.4-.569 1.42-1.42-.569-.266.665 1.42.569-.569 1.42.666.266.568-1.42 1.42.569.266-.665-1.42-.569.57-1.42z" fill="#d66f91" style="paint-order:normal"/></g></svg>
