<?xml version="1.0" encoding="iso-8859-1"?>
<!-- Generator: Adobe Illustrator 19.0.0, SVG Export Plug-In . SVG Version: 6.00 Build 0)  -->
<svg xmlns="http://www.w3.org/2000/svg" xmlns:xlink="http://www.w3.org/1999/xlink" version="1.1" id="Capa_1" x="0px" y="0px" viewBox="0 0 480.01 480.01" style="enable-background:new 0 0 480.01 480.01;" xml:space="preserve" width="512px" height="512px">
<g>
	<g>
		<path d="M478.729,235.708l-88.008-136c-1.474-2.28-4.005-3.657-6.72-3.656h-288c-2.715-0.001-5.246,1.376-6.72,3.656l-88,136    c-2.047,3.167-1.603,7.334,1.064,10l232,232c0.12,0.12,0.288,0.16,0.416,0.272c2.999,2.636,7.489,2.636,10.488,0    c0.128-0.112,0.288-0.152,0.416-0.272l232-232C480.332,243.042,480.775,238.876,478.729,235.708z M364.513,112.052l-39.92,108    l-69.888-108H364.513z M313.297,232.052H166.705l73.296-113.272L313.297,232.052z M225.297,112.052l-69.888,108l-39.92-108    H225.297z M99.129,113.948l43.64,118.104H22.705L99.129,113.948z M27.313,248.052h121.376l71.152,192.512L27.313,248.052z     M240.001,448.972l-74.248-200.92h148.496L240.001,448.972z M260.169,440.572l71.144-192.52h121.376L260.169,440.572z     M337.233,232.052l43.648-118.104l76.416,118.104H337.233z" fill="#FFFFFF"/>
	</g>
</g>
<g>
	<g>
		<path d="M328.001,16.052h-16c0,13.255-10.745,24-24,24v16c13.255,0,24,10.745,24,24h16c0-13.255,10.745-24,24-24v-16    C338.746,40.052,328.001,29.307,328.001,16.052z M320.001,56.3c-2.333-3.136-5.112-5.914-8.248-8.248    c3.136-2.334,5.914-5.112,8.248-8.248c2.334,3.136,5.112,5.914,8.248,8.248C325.113,50.386,322.334,53.164,320.001,56.3z" fill="#FFFFFF"/>
	</g>
</g>
<g>
	<g>
		<path d="M440.001,0.052h-16c-0.026,22.08-17.92,39.974-40,40v16c22.08,0.026,39.974,17.92,40,40h16    c0.026-22.08,17.92-39.974,40-40v-16C457.92,40.026,440.027,22.133,440.001,0.052z M432.001,67.356    c-4.755-7.92-11.384-14.549-19.304-19.304c7.92-4.755,14.549-11.384,19.304-19.304c4.755,7.92,11.384,14.549,19.304,19.304    C443.385,52.807,436.756,59.437,432.001,67.356z" fill="#FFFFFF"/>
	</g>
</g>
<g>
</g>
<g>
</g>
<g>
</g>
<g>
</g>
<g>
</g>
<g>
</g>
<g>
</g>
<g>
</g>
<g>
</g>
<g>
</g>
<g>
</g>
<g>
</g>
<g>
</g>
<g>
</g>
<g>
</g>
</svg>
